<svg width="313" height="90" viewBox="0 0 313 90" fill="none" xmlns="http://www.w3.org/2000/svg">
    <path d="M71.0227 0V48.0648C71.0227 73.0539 45.581 88.868 36.5045 88.868C27.428 88.868 1.98633 73.0308 1.98633 48.0648V0H70.9998H71.0227Z" fill="#203B7E"/>
    <path d="M70.7708 0V48.0648C70.7708 73.0539 45.3291 88.868 36.2526 88.868C27.1761 88.868 1.73438 73.0308 1.73438 48.0648V0H70.7478H70.7708ZM70.3353 0.438001H2.16987V48.0648C2.16987 72.5928 27.497 88.4531 36.2526 88.4531C45.0082 88.4531 70.3353 72.5928 70.3353 48.0648V0.438001Z" fill="#203B7E"/>
    <path d="M9.91727 20.8398L11.5676 19.7332L11.0404 18.9264L11.4071 18.6959L12.6907 20.6553L12.3239 20.8859L11.7968 20.1021L10.1465 21.2086L11.2237 22.8684L15.2119 20.2173L13.3095 17.3127C12.7594 17.5432 12.1176 17.3588 11.7738 16.8516C11.4071 16.2753 11.5676 15.5146 12.1406 15.1227C12.7136 14.7538 13.47 14.9152 13.8596 15.4915C14.2034 15.9987 14.1117 16.6672 13.6762 17.0822L15.5786 19.9868L16.908 19.0877L43.6562 59.8449L45.4669 62.6112C46.8651 67.2217 45.3294 68.2361 46.2921 68.6971C47.3693 69.2504 49.501 69.4348 50.7157 68.651C51.9305 67.8442 52.5723 65.8155 52.5035 64.5937C52.4806 63.5103 50.9449 64.5246 47.2777 61.4355L45.4669 58.6692L9.75683 4.24182C9.41302 3.80382 8.79418 3.68856 8.31285 3.98824C7.83152 4.31098 7.69399 4.9334 7.96904 5.41751V5.44056C7.96904 5.44056 7.96904 5.46362 7.96904 5.48667C7.96904 5.48667 7.96903 5.48667 7.99195 5.50972L9.29842 7.49225L7.96904 8.36825L9.87143 11.2729C10.3986 11.0424 11.0633 11.2268 11.4071 11.7339C11.7738 12.3103 11.6134 13.071 11.0633 13.4629C10.4903 13.8317 9.71099 13.6934 9.34426 13.1171C9.00045 12.6099 9.09214 11.9414 9.52763 11.5265L7.62523 8.64489L3.63707 11.2959L4.89769 13.2093L6.54797 12.1028L6.0208 11.2959L6.38753 11.0654L7.67107 13.0249L7.32726 13.2554L6.80009 12.4716L5.12689 13.5782L5.86035 14.6847L3.13281 16.5058L4.59972 18.742L7.32726 16.9208C7.09806 16.3906 7.28142 15.7221 7.78567 15.3993C8.35868 15.0305 9.11506 15.1688 9.5047 15.7451C9.87143 16.3214 9.73391 17.0822 9.1609 17.4741C8.65665 17.8199 7.99195 17.7276 7.57938 17.2896L4.85185 19.0877L6.31876 21.3239L9.0463 19.5027L9.9402 20.8628L9.91727 20.8398ZM47.4152 64.5015L47.5069 63.7177L48.2862 63.9483C50.051 65.4236 50.7845 64.9395 50.8074 65.4697C50.8533 66.0461 50.5324 67.0373 49.9594 67.4292C49.3863 67.7981 48.3549 67.7059 47.8507 67.4523C47.3693 67.2217 48.1257 66.7607 47.461 64.5246" fill="#B48D00"/>
    <path d="M51.1964 58.7614C50.142 58.5309 49.5461 58.8767 49.2252 59.1994C48.5376 59.891 48.6293 61.0436 48.7668 61.643C48.7897 61.8274 48.8585 62.0119 48.9731 62.1732C49.3627 62.7495 50.0962 62.934 50.6004 62.5882C51.1276 62.2424 51.2422 61.4816 50.8526 60.9053C50.6921 60.6748 50.4859 60.4904 50.2566 60.3982C50.2566 60.329 50.3025 60.306 50.3254 60.2829C50.3483 60.2599 50.5088 60.1907 50.8755 60.2829C53.0529 60.7209 54.5198 61.8044 55.1845 63.4872C55.9868 65.4698 55.4596 67.7289 55.2075 68.0978L55.1158 68.3052C55.0241 68.4435 54.8407 68.6049 54.7032 68.628C54.6344 68.628 54.3823 68.628 54.0844 68.5819C54.176 67.9594 53.8552 67.3601 53.3051 67.2218C52.7091 67.0604 52.0674 67.4523 51.884 68.1208C51.8152 68.3974 51.8152 68.6971 51.9069 68.9507C51.7694 68.7893 51.6319 68.628 51.5173 68.4666L51.1276 68.7202L50.6921 69.0199L50.3025 69.2734C50.3942 69.4579 50.4859 69.6192 50.5775 69.8037C50.3942 69.6192 50.142 69.504 49.8441 69.4579C49.1565 69.3657 48.5376 69.8037 48.4459 70.4261C48.3772 71.0024 48.7897 71.5326 49.3857 71.694C49.3169 71.9937 49.2252 72.2242 49.1794 72.2933C49.1106 72.4086 48.8814 72.5239 48.721 72.5469H48.4918C48.0334 72.6161 45.7642 72.2242 44.2744 70.7027C42.9909 69.4118 42.5783 67.6367 43.0367 65.4467C43.1055 65.0779 43.2201 64.9626 43.243 64.9395C43.2659 64.9395 43.3118 64.9395 43.3805 64.9395C43.3805 65.1931 43.4493 65.4467 43.6097 65.7003C43.9994 66.2766 44.7328 66.461 45.2371 66.1152C45.7642 65.7694 45.8788 65.0087 45.4892 64.4324C45.3746 64.271 45.2371 64.1327 45.0766 64.0405C44.5724 63.6716 43.5639 63.1184 42.6471 63.4872C42.2345 63.6486 41.6844 64.0866 41.4781 65.147C40.6988 68.8815 42.2116 71.0715 43.6097 72.2703C45.3746 73.7457 47.8958 74.345 48.8814 74.0453H48.9273C49.1565 73.9992 49.569 73.9301 49.9587 73.6765C50.165 73.5382 50.3483 73.3538 50.5088 73.1002C50.8067 72.593 51.0818 71.6479 50.9213 70.7488C51.6548 72.57 51.9528 74.5756 50.8755 76.074C51.2422 75.9818 52.8008 75.659 52.7779 73.7226C52.7779 73.6073 52.7779 73.5151 52.755 73.3999C52.755 73.4229 52.7779 73.446 52.8008 73.4921C53.2134 74.3681 53.2134 74.4372 53.4197 74.8291C53.6259 75.198 53.5572 75.6821 55.4825 75.9126C56.0097 74.0453 55.5513 73.9301 55.2991 73.5843C55.047 73.2385 54.9783 73.1924 54.3136 72.4778C54.2906 72.4547 54.2677 72.4317 54.2448 72.3855C54.3365 72.4317 54.4511 72.5008 54.5657 72.5469C56.3306 73.3538 57.2245 72.0398 57.4537 71.717C55.643 72.1089 53.9239 71.0254 52.5258 69.6423C53.2821 70.1494 54.2906 70.2647 54.8866 70.1955C55.1845 70.1494 55.4367 70.0572 55.643 69.9189C56.0326 69.6653 56.2618 69.2965 56.3764 69.1121V69.066C57.0411 68.2822 57.4995 65.7003 56.8348 63.4872C56.3076 61.7352 54.8866 59.4761 51.1735 58.7153" fill="#B48D00"/>
    <path d="M63.5271 19.5021L66.2547 21.3002L67.7216 19.0641L64.9941 17.266C64.5815 17.704 63.9168 17.7731 63.4125 17.4504C62.8395 17.0815 62.6791 16.2978 63.0687 15.7214C63.4584 15.1451 64.2148 14.9838 64.7878 15.3756C65.292 15.7214 65.4754 16.3669 65.2462 16.8971L67.9737 18.7183L69.4406 16.4822L66.7131 14.6841L67.4465 13.5775L65.7963 12.471L65.2691 13.2548L64.9024 13.0243L66.1859 11.0648L66.5526 11.2953L66.0255 12.1022L67.6757 13.2087L68.9364 11.2953L64.9482 8.64427L63.0458 11.5259C63.4813 11.9408 63.573 12.6093 63.2292 13.1165C62.8624 13.6928 62.0832 13.8542 61.5101 13.4623C60.9371 13.0704 60.7767 12.3096 61.1663 11.7333C61.5101 11.2262 62.1519 11.0417 62.702 11.2723L64.6044 8.36764L63.275 7.49163L64.5815 5.50911C64.5815 5.50911 64.5815 5.50911 64.6044 5.48605C64.6044 5.48605 64.6044 5.463 64.6044 5.43995H64.6273V5.41689C64.9024 4.93279 64.7648 4.28731 64.2835 3.98763C63.8022 3.66489 63.1833 3.80321 62.8395 4.24121L27.1295 58.6455L25.3188 61.4118C21.6515 64.5009 20.1158 63.4635 20.0929 64.57C20.0241 65.7918 20.6659 67.8205 21.8807 68.6273C23.0955 69.4341 25.2042 69.2267 26.3043 68.6734C27.2899 68.2124 25.7542 67.198 27.1295 62.5875L28.9402 59.8212L55.6883 19.0641L57.0407 19.9401L58.9431 17.0354C58.5076 16.6205 58.4159 15.952 58.7597 15.4448C59.1264 14.8685 59.9057 14.7071 60.4787 15.076C61.0517 15.4679 61.2122 16.2286 60.8225 16.8049C60.4787 17.3121 59.8369 17.4965 59.2869 17.266L57.3845 20.1706L61.3726 22.8217L62.4499 21.1619L60.7996 20.0553L60.2724 20.8391L59.9057 20.6086L61.1893 18.6491L61.556 18.8796L61.0288 19.6865L62.6791 20.793L63.573 19.4329L63.5271 19.5021ZM24.7457 67.4286C24.2186 67.6821 23.2101 67.7974 22.6371 67.4055C22.0641 67.0136 21.7432 66.0454 21.789 65.446C21.789 64.9158 22.5454 65.423 24.2873 63.9246L25.0666 63.7171L25.1583 64.5009C24.4936 66.7139 25.2271 67.198 24.7687 67.4286" fill="#B48D00"/>
    <path d="M21.3564 58.7614C22.4107 58.5309 23.0067 58.8767 23.3275 59.1994C24.0152 59.891 23.9235 61.0436 23.786 61.643C23.763 61.8274 23.6943 62.0119 23.5797 62.1732C23.19 62.7495 22.4566 62.934 21.9523 62.5882C21.4251 62.2424 21.3105 61.4816 21.7002 60.9053C21.8606 60.6748 22.0669 60.4904 22.2961 60.3982C22.2961 60.329 22.2503 60.306 22.2274 60.2829C22.2044 60.2599 22.044 60.1907 21.6773 60.2829C19.4998 60.7209 18.0329 61.8044 17.3682 63.4872C16.566 65.4698 17.0932 67.7289 17.3453 68.0978L17.437 68.3052C17.5287 68.4435 17.712 68.6049 17.8496 68.628C17.9183 68.628 18.1704 68.628 18.4684 68.5819C18.3767 67.9594 18.6976 67.3601 19.2477 67.2218C19.8436 67.0604 20.4854 67.4523 20.6688 68.1208C20.7375 68.3974 20.7375 68.6971 20.6458 68.9507C20.7834 68.7893 20.9209 68.628 21.0355 68.4666L21.4251 68.7202L21.8606 69.0199L22.2503 69.2734C22.1586 69.4579 22.0669 69.6192 21.9752 69.8037C22.1586 69.6192 22.4107 69.504 22.7087 69.4579C23.3963 69.3657 24.0152 69.8037 24.1068 70.4261C24.1756 71.0024 23.763 71.5326 23.1671 71.694C23.2359 71.9937 23.3505 72.2242 23.3734 72.2933C23.4421 72.4086 23.6713 72.5239 23.8318 72.5469H24.061C24.5194 72.6161 26.7885 72.2242 28.2784 70.7027C29.5619 69.4118 29.9745 67.6367 29.5161 65.4467C29.4473 65.0779 29.3327 64.9626 29.3098 64.9395C29.2869 64.9395 29.241 64.9395 29.1723 64.9395C29.1723 65.1931 29.1035 65.4467 28.9431 65.7003C28.5534 66.2766 27.8199 66.461 27.3157 66.1152C26.7885 65.7694 26.6739 65.0087 27.0636 64.4324C27.1782 64.271 27.3157 64.1327 27.4761 64.0405C27.9804 63.6716 28.9889 63.1184 29.9057 63.4872C30.3183 63.6486 30.8684 64.0866 31.0746 65.147C31.8539 68.8815 30.3412 71.0715 28.9431 72.2703C27.1782 73.7457 24.6569 74.345 23.6713 74.0453H23.6255C23.3963 73.9992 22.9837 73.9301 22.5941 73.6765C22.3878 73.5382 22.2044 73.3538 22.044 73.1002C21.746 72.593 21.471 71.6479 21.6085 70.7488C20.8751 72.57 20.5771 74.5756 21.6543 76.074C21.2876 75.9818 19.729 75.659 19.7519 73.7226C19.7519 73.6073 19.752 73.5151 19.7749 73.3999C19.7749 73.4229 19.752 73.446 19.729 73.4921C19.3165 74.3681 19.3165 74.4372 19.1102 74.8291C18.9039 75.198 18.9727 75.6821 17.0473 75.9126C16.5202 74.0453 16.9557 73.9301 17.2307 73.5843C17.5057 73.2385 17.5516 73.1924 18.2163 72.4778C18.2392 72.4547 18.2621 72.4317 18.285 72.3855C18.1934 72.4317 18.0788 72.5008 17.9642 72.5469C16.1993 73.3538 15.3054 72.0398 15.0762 71.717C16.8869 72.1089 18.6059 71.0254 20.0041 69.6423C19.2477 70.1494 18.2392 70.2647 17.6433 70.1955C17.3453 70.1494 17.0932 70.0572 16.8869 69.9189C16.4972 69.6653 16.268 69.2965 16.1534 69.1121V69.066C15.4887 68.2822 15.0303 65.7003 15.695 63.4872C16.2222 61.7352 17.6433 59.4761 21.3564 58.7153" fill="#B48D00"/>
    <path d="M29.2383 21.0472V17.7277C27.9319 17.5202 27.038 18.2579 26.6483 18.6959V21.9232C27.1296 21.4622 28.0235 20.8628 29.2383 21.0472Z" fill="#B48D00"/>
    <path d="M26.6476 10.6274C27.1519 10.1663 28.0228 9.59003 29.2147 9.77445V5.74023C27.3123 6.10908 26.533 7.28476 26.6476 8.16076V10.6505V10.6274Z" fill="#B48D00"/>
    <path d="M29.2369 10.0281C27.9304 9.82063 27.0594 10.5353 26.6698 10.9963V14.4081C27.1511 13.9471 28.045 13.3477 29.2369 13.5321V10.0281Z" fill="#B48D00"/>
    <path d="M29.2369 13.8087C27.9304 13.6012 27.0594 14.3389 26.6698 14.7769V18.304C27.1741 17.8429 28.045 17.2436 29.2369 17.428V13.7857V13.8087Z" fill="#B48D00"/>
    <path d="M25.0224 51.8222C24.289 52.3985 24.0369 52.4907 23.2576 52.629C20.3925 51.5225 21.7677 48.8484 22.6387 47.5344C25.3204 44.9064 25.1829 42.0017 24.8391 40.2497L24.7474 40.3419C24.7474 40.3419 24.6786 40.2728 24.587 40.2036C23.7618 39.512 23.3951 38.7513 23.2117 38.175C23.1201 38.5208 23.0054 38.8896 22.8221 39.2815C22.7533 39.3737 22.7304 39.4659 22.6846 39.5812C22.6387 39.6964 22.5929 39.8117 22.5012 39.95L22.2949 40.3189V39.9039C22.2949 39.9039 22.1803 39.6734 21.974 39.3507C21.5156 38.5438 21.8365 37.4142 21.9511 36.9993V36.9301C22.272 35.6161 22.272 35.0168 22.1574 34.2099C21.6302 33.0342 21.2635 32.942 21.0343 32.8729H20.9884C19.8424 32.5271 19.7737 32.0891 19.7049 31.6972C19.7049 31.628 19.7049 31.5358 19.6591 31.4666L19.8653 31.4205C19.8653 31.4205 19.9112 31.5819 19.9112 31.6741C19.957 32.043 20.0029 32.3657 21.0114 32.6654H21.0572C21.3323 32.7345 21.8823 32.8729 22.57 34.7171C22.7304 35.2012 22.8221 35.6853 23.0284 36.6765L23.2347 37.6448C23.3493 38.1289 23.6243 39.1662 24.6786 40.0192C24.7016 40.0422 24.7245 40.0653 24.7474 40.0883C24.6328 39.5581 24.5182 39.1432 24.4724 38.8896C24.564 38.0597 24.4724 37.4142 24.4724 36.3308C24.4724 36.3308 24.4724 35.8005 24.1056 34.7862C23.7389 33.7719 23.8764 33.2648 23.8993 32.3888C23.9681 30.9364 20.8738 28.1932 20.5759 27.8704C20.3008 27.5477 19.2694 24.0898 19.2923 24.9427C19.2923 25.3577 19.0631 26.6947 18.6964 27.0175C18.3068 25.058 18.2609 26.0954 17.8254 27.0175C17.3441 23.9054 16.9544 26.8561 16.6336 27.7782C16.0376 24.8275 15.7626 27.2941 15.5563 27.8243C14.479 28.0318 14.204 29.7838 14.4103 30.9825C13.7685 30.3832 13.9289 31.4205 14.5249 32.3426C13.333 32.1352 14.9604 33.818 15.5563 34.4174C14.1352 34.256 15.3959 35.132 16.1522 35.6161C16.9086 36.1002 17.6191 37.0223 17.8254 38.7743C18.0317 40.5263 17.2295 40.1345 16.7482 39.9731C10.6284 33.4722 14.0894 28.1932 14.8458 27.0866C18.1692 18.949 14.8458 24.4586 13.8143 26.3259C13.5164 23.5596 12.9892 23.9284 12.462 25.1041C12.3245 25.4268 12.0265 25.7957 11.8661 26.1645C11.7286 26.5564 11.614 26.9022 11.4764 27.248C11.3389 27.6168 11.316 27.9857 11.2014 28.2393C10.0554 21.4157 9.71158 22.4069 9.16148 24.8275C9.11564 25.0811 8.86351 25.2885 8.81767 25.5652C8.70307 26.0723 8.63431 26.6486 8.49679 27.1558C8.40511 27.5246 8.40511 27.8935 8.2905 28.2393C5.31084 20.8624 6.02138 25.0811 5.95262 29.2766C6.1589 30.7981 6.61731 32.0891 6.70899 32.8729C4.09606 28.8156 4.00437 29.6455 4.55446 31.7433C4.73783 32.3888 4.82952 33.1725 5.08164 33.9794C5.21917 34.4404 5.37961 35.109 5.51713 35.57C5.79217 36.423 6.1589 36.9762 6.2735 37.5295C3.66057 35.2703 3.95853 36.2847 4.85243 37.8292C5.0358 38.1519 5.05871 38.6591 5.28792 39.0049C5.54004 39.3968 5.81509 39.7887 6.0443 40.1345C6.41103 40.6647 6.91528 40.9413 7.07572 41.1718C3.54597 40.5725 4.1419 41.241 5.47129 42.0017C5.65465 42.0939 5.74633 42.3706 5.95262 42.4858C6.2735 42.6702 6.61731 42.8316 6.96112 42.993C7.46537 43.2466 7.99254 43.2927 8.24466 43.4079C3.72933 43.5693 10.5138 44.8833 11.6598 44.8833C11.3848 45.3213 10.9034 46.0359 10.3075 46.7275C9.71158 47.4422 9.23024 47.7649 8.03838 48.5717C6.52563 49.4938 6.25058 49.9779 5.10456 51.1997L11.2243 52.0066C11.2243 52.0066 11.5452 51.7991 11.8203 51.5225C14.8687 50.0471 14.0435 50.9692 14.4332 51.3611C15.9001 55.0265 15.5792 56.11 15.1437 56.8246C13.9519 57.6314 13.3559 57.0321 12.8058 56.5941C12.2557 56.1561 11.614 56.5941 10.5367 57.1473C11.614 56.986 11.5681 57.3548 11.614 57.6314C11.2931 58.9454 12.3703 58.6227 13.5164 58.0694C16.4043 57.5853 16.5648 58.3922 16.8169 58.8763C16.8169 60.3055 17.2066 60.3055 17.6879 60.3516C18.1692 60.3977 17.9171 60.6744 17.8483 61.389C19.5215 58.8763 18.4901 58.5996 18.0546 58.2769C16.9086 57.7236 17.1836 57.2856 17.2983 57.0321C19.4069 57.9081 20.5071 57.1934 21.0343 56.9168C21.5844 56.6402 21.3093 57.4009 21.1947 57.9081C22.8221 56.986 21.4698 56.0639 20.9197 55.7872C19.2923 55.234 18.2609 55.7872 17.6191 56.11C16.9774 56.4327 16.8628 56.3866 16.5419 56.2252C16.1522 54.8651 16.9315 54.3118 17.8942 52.7443C18.8798 51.1536 21.1489 52.629 21.699 53.2284C21.2177 53.2284 20.7134 53.2745 20.0258 53.1823C18.8798 52.9517 18.1922 53.8277 17.6421 54.6576C17.9171 54.381 18.0775 54.4963 18.2838 54.5424C19.1548 54.819 19.3611 54.7037 20.1862 54.381C22.7992 53.3897 23.2805 54.381 23.6701 54.7037C24.4724 55.7411 24.7474 55.8564 25.4579 55.7872C26.604 55.5106 26.4894 55.9486 26.6498 56.3866C28.4376 54.5193 26.1685 54.5885 25.2975 54.4732C24.4265 54.3579 24.1056 54.1505 23.3951 53.6433C24.0827 53.2284 24.5182 53.2053 25.1371 53.0439C26.604 52.629 26.6956 52.1218 26.8332 51.4764C27.4062 51.1075 28.2313 51.6147 28.5751 51.5455C26.9936 50.0932 25.7101 51.1536 24.9766 51.7299M20.9426 30.2218C20.9426 30.2218 21.5156 30.8673 21.9511 31.1209C22.0886 31.2131 22.7762 31.6741 22.7304 32.1582C22.7304 32.2043 22.7304 32.2274 22.7304 32.2735C22.7304 32.5962 22.6158 32.7345 22.0886 32.7345C22.0199 32.7345 21.974 32.7345 21.9053 32.7345H21.8365C21.5615 32.6193 20.8968 32.3657 20.7592 30.3371V30.0143L20.9655 30.2679L20.9426 30.2218ZM19.6591 35.2473C19.2923 34.4865 17.6879 34.0485 16.8857 33.1264C15.9918 31.9969 16.3356 30.8673 16.4273 30.3601C16.8398 28.977 17.9629 29.8069 18.238 30.0604C18.513 30.314 18.7193 30.8442 18.811 31.2361C18.9256 32.5271 19.8883 33.0573 20.6217 33.5414C21.3552 34.0255 21.5156 34.5096 21.5385 34.8554C21.3781 35.2473 21.4927 36.1233 21.5844 36.5382C21.5844 36.5382 20.9426 36.423 20.5071 36.0311C20.2092 35.8467 19.8653 35.4548 19.682 35.2473" fill="white"/>
    <path d="M22.1797 37.0679C22.088 37.4367 21.79 38.5432 22.1797 39.2579C22.2943 39.4423 22.363 39.5576 22.4089 39.6498C22.4318 39.6037 22.4547 39.5345 22.4776 39.4884C22.5235 39.3731 22.5693 39.2809 22.6381 39.1657C22.8673 38.6585 23.0277 38.1513 23.0736 37.7133V37.6211L22.8673 36.7221C22.6839 35.8461 22.5693 35.362 22.4547 34.947C22.4547 35.5003 22.4089 36.0997 22.2026 36.9987V37.0679H22.1797Z" fill="#203B7E"/>
    <path d="M21.95 32.5503H21.9729C21.9729 32.5503 22.0875 32.5503 22.1334 32.5503C22.546 32.5503 22.546 32.5042 22.546 32.2967C22.546 32.2506 22.546 32.2275 22.546 32.1814C22.546 32.0431 22.4313 31.8587 22.248 31.6743C22.248 31.8126 22.1792 31.9048 21.9959 31.8817C21.7437 31.8356 21.4687 31.3746 21.4687 31.3746C21.4687 31.3746 21.6979 31.3746 21.9042 31.3976C21.9042 31.3976 21.9042 31.3976 21.8813 31.3976C21.5833 31.2363 21.2395 30.9135 21.0332 30.7061C21.1936 32.2967 21.7208 32.5042 21.95 32.5733" fill="#203B7E"/>
    <path d="M44.25 51.6377C44.5938 51.7069 45.4189 51.1997 45.992 51.5686C46.1295 52.2141 46.2441 52.6982 47.6881 53.1362C48.3069 53.2975 48.7424 53.3436 49.43 53.7355C48.7195 54.2427 48.3986 54.4502 47.5276 54.5654C46.6566 54.6807 44.3875 54.6115 46.1753 56.4788C46.3358 56.0408 46.2212 55.6028 47.3672 55.8794C48.0777 55.9255 48.3299 55.8333 49.155 54.796C49.5446 54.4732 50.026 53.4819 52.6389 54.4732C53.4411 54.7959 53.6703 54.9112 54.5413 54.6346C54.7705 54.5885 54.9309 54.4732 55.1831 54.7498C54.633 53.92 53.9454 53.067 52.7993 53.2745C52.0888 53.3897 51.6075 53.3206 51.1261 53.3206C51.6762 52.7212 53.9454 51.2458 54.9309 52.8365C55.9165 54.4271 56.6729 54.9573 56.2832 56.3405C55.9624 56.5019 55.8478 56.571 55.206 56.2252C54.5642 55.9025 53.5328 55.3492 51.8825 55.9025C51.3324 56.1791 49.9801 57.1012 51.6075 58.0233C51.4929 57.5392 51.2407 56.7785 51.7679 57.0321C52.318 57.3087 53.3953 58.0233 55.504 57.1473C55.6186 57.424 55.8707 57.862 54.7476 58.3922C54.3121 58.7149 53.2807 58.9915 54.9539 61.5043C54.908 60.7896 54.633 60.513 55.1143 60.4669C55.5956 60.4208 55.9853 60.4208 55.9853 58.9915C56.2603 58.5074 56.4208 57.6775 59.3088 58.1847C60.4548 58.738 61.532 59.0607 61.2111 57.7467C61.257 57.4701 61.2112 57.1012 62.2884 57.2626C61.2112 56.7093 60.5465 56.2713 60.0193 56.7093C59.4692 57.1473 58.8733 57.7467 57.6814 56.9168C57.2459 56.2022 56.925 55.1187 58.3919 51.4533C58.7816 51.0614 57.9564 50.1393 61.0049 51.6147C61.2799 51.8913 61.6008 52.0988 61.6008 52.0988L67.7206 51.2689C66.5745 50.0702 66.3224 49.5861 64.7867 48.6409C63.5949 47.811 63.1135 47.4883 62.5176 46.7967C61.9217 46.082 61.4404 45.3674 61.1653 44.9294C62.3113 44.9294 69.0958 43.6154 64.5805 43.454C64.8326 43.3388 65.3598 43.2927 65.864 43.0391C66.1849 42.8777 66.5287 42.6933 66.8725 42.5319C67.0559 42.4397 67.1705 42.1631 67.3538 42.0478C68.6832 41.264 69.2562 40.6186 65.7494 41.2179C65.9098 40.9874 66.4141 40.7108 66.7808 40.1806C67.01 39.8348 67.2851 39.4429 67.5372 39.051C67.7664 38.7052 67.7893 38.198 67.9727 37.8753C68.8895 36.3308 69.1646 35.3165 66.5745 37.5756C66.6891 37.0223 67.0788 36.4691 67.3309 35.6161C67.4684 35.1781 67.6289 34.4866 67.7664 34.0255C68.0185 33.2417 68.1102 32.4579 68.2936 31.7894C68.8666 29.7147 68.752 28.8848 66.1391 32.919C66.2307 32.1352 66.6891 30.8442 66.8954 29.3228C66.8496 25.1272 67.5372 20.9085 64.5575 28.2854C64.4429 27.9396 64.4429 27.5708 64.3283 27.2019C64.1908 26.6948 64.1221 26.1184 64.0075 25.6113C63.9387 25.3347 63.7095 25.1272 63.6636 24.8736C63.1135 22.43 62.7697 21.4618 61.6237 28.2854C61.5091 28.0549 61.4862 27.663 61.3487 27.2941C61.2112 26.9253 61.1195 26.5795 60.959 26.2107C60.8215 25.8188 60.5235 25.4499 60.3631 25.1502C59.8359 23.9976 59.2858 23.6288 59.0108 26.372C57.9794 24.5278 54.6788 18.9952 57.9794 27.1328C58.7357 28.2162 62.2197 33.5183 56.077 40.0192C55.5956 40.1806 54.7705 40.5725 54.9997 38.8205C55.2289 37.0685 55.9165 36.1464 56.6958 35.6622C57.4522 35.1781 58.7128 34.3021 57.2918 34.4635C57.8877 33.8641 59.515 32.1813 58.3232 32.3888C58.9191 31.4667 59.0795 30.4293 58.4378 31.0287C58.667 29.8299 58.3919 28.0779 57.2918 27.8704C57.0855 27.3172 56.8104 24.8736 56.2145 27.8243C55.8936 26.9022 55.504 23.9515 55.0226 27.0636C54.5871 26.1415 54.5413 25.1041 54.1517 27.0636C53.762 26.7409 53.5328 25.4038 53.5557 24.9889C53.5557 24.1129 52.5701 27.5938 52.2722 27.9165C51.9971 28.2393 48.8799 30.9826 48.9487 32.4349C48.9945 33.3109 49.1321 33.818 48.7653 34.8323C48.3757 35.8467 48.3757 36.3769 48.3757 36.3769C48.3757 37.4604 48.284 38.1289 48.3757 38.9357C48.3299 39.1893 48.1923 39.6042 48.1006 40.1345C48.1006 40.1345 48.1465 40.0884 48.1694 40.0653C49.2237 39.2124 49.4988 38.175 49.6134 37.6909L49.8197 36.7227C50.026 35.7314 50.1406 35.2473 50.2781 34.7632C50.9657 32.919 51.4929 32.7807 51.7908 32.7115H51.8367C52.8452 32.4118 52.891 32.0891 52.9598 31.7202C52.9598 31.628 52.9827 31.5589 53.0056 31.4667L53.2348 31.5128C53.2348 31.5128 53.2119 31.6741 53.189 31.7433C53.1202 32.1582 53.0744 32.5732 51.9284 32.919H51.8825C51.6533 32.9881 51.2866 33.0803 50.7594 34.256C50.6448 35.0629 50.6448 35.6853 50.9428 36.9993V37.0685C51.0803 37.5065 51.3783 38.636 50.9428 39.4198C50.7594 39.7426 50.6448 39.927 50.6448 39.9731V40.4111L50.4385 40.0423C50.3468 39.9039 50.301 39.7656 50.2552 39.6504C50.2093 39.5351 50.1635 39.4429 50.1176 39.3507C49.9572 38.9588 49.8197 38.5899 49.7509 38.2441C49.5676 38.7974 49.2008 39.5812 48.3757 40.2728C48.284 40.365 48.2152 40.4111 48.2152 40.4111L48.1236 40.3189C47.7798 42.0709 47.6422 44.9755 50.3239 47.6035C51.172 48.9175 52.5701 51.5916 49.7051 52.6982C48.9487 52.5368 48.6737 52.4446 47.9402 51.8913C47.2067 51.315 45.9232 50.2546 44.3417 51.7069M52.1805 30.1296V30.4523C52.02 32.481 51.3554 32.7346 51.0803 32.8268H51.0115C51.0115 32.8268 50.874 32.8498 50.8282 32.8498C50.301 32.8498 50.2093 32.7115 50.1864 32.3888C50.1864 32.3657 50.1864 32.3196 50.1864 32.2735C50.1406 31.8125 50.8282 31.3514 50.9657 31.2592C51.4012 31.0056 51.9742 30.3832 51.9742 30.3601L52.1805 30.1066V30.1296ZM52.4326 36.1925C51.9971 36.5613 51.3554 36.6996 51.3554 36.6996C51.4241 36.2847 51.5387 35.4317 51.3783 35.0168C51.3783 34.671 51.5616 34.1869 52.2951 33.7028C53.0285 33.2187 53.9912 32.6885 54.1058 31.3975C54.1975 31.0056 54.4038 30.4754 54.6788 30.2218C54.9539 29.9682 56.077 29.1383 56.4895 30.5215C56.5812 31.0287 56.925 32.1582 56.0311 33.2878C55.2289 34.2099 53.6245 34.6479 53.2577 35.4087C53.0973 35.6392 52.7306 36.008 52.4326 36.1925Z" fill="white"/>
    <path d="M50.6928 37.0681C50.7845 37.437 51.0825 38.5435 50.6928 39.2581C50.5782 39.4425 50.5095 39.5578 50.4636 39.65C50.4407 39.6039 50.4178 39.5347 50.3949 39.4886C50.349 39.3734 50.3032 39.2812 50.2344 39.1659C50.0052 38.6587 49.8677 38.1516 49.799 37.7136V37.6214L50.0052 36.7223C50.1886 35.8463 50.3032 35.3622 50.4178 34.9473C50.4178 35.5005 50.4636 36.0999 50.6699 36.999V37.0681H50.6928Z" fill="#203B7E"/>
    <path d="M50.9207 32.5503C50.9207 32.5503 50.8061 32.5503 50.7602 32.5503C50.3476 32.5503 50.3477 32.5042 50.3477 32.2967C50.3477 32.2506 50.3477 32.2275 50.3477 32.1814C50.3477 32.0431 50.4623 31.8587 50.6456 31.6743C50.6456 31.8126 50.7144 31.9048 50.8977 31.8817C51.1499 31.8356 51.4249 31.3746 51.4249 31.3746C51.4249 31.3746 51.1957 31.3746 50.9894 31.3976C50.9894 31.3976 50.9894 31.3976 51.0123 31.3976C51.3103 31.2363 51.6541 30.9135 51.8604 30.7061C51.7 32.2967 51.1728 32.5042 50.9436 32.5733" fill="#203B7E"/>
    <path d="M41.9836 21.8991V21.6225H45.7884V18.0263H41.9836V17.7497H45.7884V13.3927H41.9836V13.1161H45.7884V9.10491H41.9836V8.82828H45.7655V5.69312H29.4919V24.6424H29.2169V21.2998C27.9104 21.0692 27.0165 21.83 26.6269 22.291V26.9938C26.6727 27.5932 27.1311 28.0773 27.9334 28.0542C29.2398 27.985 44.5736 28.0542 44.5736 28.0542L44.5048 26.4636L45.7655 25.0804V21.8991H41.9607H41.9836Z" fill="#B48D00"/>
    <path d="M45.0308 25.22C35.5417 25.1508 30.1554 25.0816 29.3532 25.0586C27.5883 25.3813 27.0153 26.3956 27.0611 26.995C27.107 27.41 27.4049 27.6635 27.8863 27.6635H27.9321C28.3217 27.6635 29.9491 27.6405 32.86 27.6405C37.0315 27.6405 42.5783 27.6405 44.1598 27.6635H44.3202V26.3956L45.3975 25.22H45.0308Z" fill="#203B7E"/>
    <path d="M42.6234 9.03643C42.6234 9.5897 42.1879 10.0277 41.6378 10.0277C41.0877 10.0277 40.6522 9.5897 40.6522 9.03643C40.6522 8.48317 41.1106 8.04517 41.6378 8.04517C42.165 8.04517 42.6234 8.48317 42.6234 9.03643Z" fill="white"/>
    <path d="M42.6234 13.324C42.6234 13.8773 42.1879 14.3153 41.6378 14.3153C41.0877 14.3153 40.6522 13.8773 40.6522 13.324C40.6522 12.7708 41.1106 12.3328 41.6378 12.3328C42.165 12.3328 42.6234 12.7708 42.6234 13.324Z" fill="white"/>
    <path d="M42.6234 17.9583C42.6234 18.5116 42.1879 18.9496 41.6378 18.9496C41.0877 18.9496 40.6522 18.4885 40.6522 17.9583C40.6522 17.4281 41.1106 16.967 41.6378 16.967C42.165 16.967 42.6234 17.405 42.6234 17.9583Z" fill="white"/>
    <path d="M42.6234 21.8311C42.6234 22.3844 42.1879 22.8224 41.6378 22.8224C41.0877 22.8224 40.6522 22.3844 40.6522 21.8311C40.6522 21.2778 41.1106 20.8398 41.6378 20.8398C42.165 20.8398 42.6234 21.2778 42.6234 21.8311Z" fill="white"/>
    <mask id="mask0_961_83" style="mask-type:luminance" maskUnits="userSpaceOnUse" x="89" y="7" width="224" height="75">
        <path d="M312.066 7.88086H89.832V81.8153H312.066V7.88086Z" fill="white"/>
    </mask>
    <g mask="url(#mask0_961_83)">
        <path d="M97.5556 14.2369C97.5556 11.3877 97.3942 10.6294 95.6418 10.4915L94.3967 10.3766C94.0969 10.1468 94.12 9.5494 94.4428 9.41154C96.5411 9.22771 99.1697 9.08984 102.79 9.08984C105.234 9.08984 107.563 9.29665 109.315 10.1698C110.975 10.974 112.267 12.5366 112.267 15.0182C112.267 17.8215 110.63 19.2461 108.301 20.3261C108.301 20.7167 108.624 20.8316 109.039 20.9006C111.137 21.2912 114.25 23.2443 114.25 27.3804C114.25 31.8611 110.906 34.8942 103.92 34.8942C102.79 34.8942 100.899 34.7793 99.2619 34.7793C97.6248 34.7793 96.2413 34.8482 94.7887 34.8942C94.5581 34.7793 94.4658 34.1589 94.7195 33.9291L95.4112 33.8142C97.4634 33.4696 97.5556 33.033 97.5556 28.9659V14.2829V14.2369ZM100.738 19.384C100.738 20.464 100.761 20.5559 102.767 20.464C106.733 20.3031 108.877 19.1542 108.877 15.5237C108.877 11.8932 106.041 10.3077 103.09 10.3077C102.236 10.3077 101.66 10.3996 101.314 10.5604C100.922 10.6524 100.784 10.8592 100.784 11.5485V19.407L100.738 19.384ZM100.738 28.3684C100.738 29.7471 100.807 31.7232 101.545 32.5734C102.283 33.4466 103.435 33.6764 104.611 33.6764C108.07 33.6764 110.699 32.1139 110.699 28.2535C110.699 25.1745 109.154 21.6359 102.974 21.6359C100.876 21.6359 100.715 21.8427 100.715 22.6469V28.3684H100.738Z" fill="#203B7E"/>
        <path d="M125.275 17.5236C125.275 14.3067 125.183 13.7323 123.776 13.5484L122.692 13.4106C122.462 13.2267 122.462 12.6982 122.715 12.5604C124.629 12.3995 126.958 12.3076 130.301 12.3076C132.4 12.3076 134.406 12.4914 135.974 13.3186C137.611 14.1688 138.787 15.7084 138.787 18.0751C138.787 21.292 136.227 23.0384 134.544 23.7277C134.383 23.9345 134.544 24.2792 134.706 24.532C137.426 28.8978 139.225 31.6322 141.531 33.5394C142.107 34.0678 142.96 34.4125 143.883 34.5044C144.044 34.5734 144.09 34.8491 143.906 34.987C143.606 35.0789 143.053 35.1478 142.407 35.1478C139.525 35.1478 137.795 34.2976 135.374 30.8739C134.475 29.6331 133.091 27.2893 132.054 25.7728C131.547 25.0375 130.993 24.6928 129.633 24.6928C128.111 24.6928 128.019 24.7388 128.019 25.4281V29.679C128.019 33.2636 128.088 33.6542 130.071 33.93L130.786 34.0219C130.993 34.1827 130.924 34.7572 130.716 34.8491C129.195 34.7802 128.042 34.7572 126.681 34.7572C125.252 34.7572 124.03 34.7802 122.439 34.8491C122.231 34.7572 122.162 34.2287 122.369 34.0219L123.223 33.93C125.183 33.7002 125.252 33.2636 125.252 29.679V17.5466L125.275 17.5236ZM128.065 22.349C128.065 22.9694 128.065 23.3371 128.157 23.452C128.272 23.5669 128.757 23.6358 130.509 23.6358C131.731 23.6358 133.022 23.475 134.014 22.7397C134.936 22.0273 135.72 20.8325 135.72 18.5576C135.72 15.8922 134.06 13.3416 130.278 13.3416C128.18 13.3416 128.065 13.4795 128.065 14.4216V22.349Z" fill="#203B7E"/>
        <path d="M151.444 17.5456C151.444 13.9381 151.375 13.3636 149.369 13.2028L148.516 13.1339C148.308 12.996 148.377 12.3986 148.562 12.3066C150.268 12.3526 151.421 12.3986 152.85 12.3986C154.28 12.3986 155.364 12.3526 157.07 12.3066C157.278 12.3986 157.347 13.019 157.139 13.1339L156.286 13.2028C154.28 13.3636 154.211 13.9381 154.211 17.5456V29.5862C154.211 33.1937 154.28 33.6533 156.286 33.883L157.139 33.975C157.347 34.0899 157.278 34.7103 157.07 34.8022C155.387 34.7332 154.211 34.7103 152.85 34.7103C151.49 34.7103 150.268 34.7562 148.562 34.8022C148.354 34.7103 148.308 34.1588 148.516 33.975L149.369 33.883C151.375 33.6533 151.444 33.1707 151.444 29.5862V17.5456Z" fill="#203B7E"/>
        <path d="M184.854 31.2861C184.854 32.6418 185.062 33.469 185.661 33.6988C185.776 33.8137 185.776 34.0205 185.615 34.1124C185.2 34.1124 184.601 34.2273 183.955 34.4111C182.156 34.8936 179.712 35.3072 177.868 35.3072C173.832 35.3072 170.12 34.2043 167.491 31.5618C165.462 29.5168 164.355 26.8513 164.355 23.8412C164.355 20.8311 165.324 18.0737 167.422 15.8448C169.705 13.4781 173.071 11.8926 178.19 11.8926C180.127 11.8926 181.926 12.2602 182.502 12.3751C183.148 12.536 184.185 12.7657 184.601 12.6738C184.601 13.7998 184.808 15.5691 185.108 17.5911C184.992 17.8669 184.393 17.8899 184.185 17.6831C183.24 14.0295 180.681 12.8806 177.222 12.8806C170.627 12.8806 167.745 17.5682 167.745 22.6233C167.745 29.1261 171.111 34.2273 177.937 34.2273C180.058 34.2273 181.303 33.7907 181.672 33.2162C181.857 32.9635 182.018 32.389 182.018 31.2631V29.9304C182.018 27.0811 181.903 26.8743 179.804 26.6215L178.306 26.4607C178.029 26.3228 178.075 25.7024 178.306 25.6105C179.297 25.6794 181.165 25.7024 183.171 25.7024C184.508 25.7024 185.661 25.7024 186.768 25.6105C187.022 25.7484 187.045 26.2309 186.814 26.4607L186.261 26.5296C184.831 26.7134 184.808 27.6555 184.808 29.3789V31.2631L184.854 31.2861Z" fill="#203B7E"/>
        <path d="M201.295 23.7972C199.681 23.7972 199.612 23.8661 199.612 24.8771V29.6336C199.612 33.2181 199.773 33.6777 201.687 33.8845L202.655 33.9764C202.863 34.1143 202.794 34.7117 202.586 34.8266C200.834 34.7577 199.612 34.7347 198.274 34.7347C196.822 34.7347 195.669 34.8036 194.331 34.8266C194.124 34.7347 194.055 34.1832 194.262 33.9764L194.839 33.8845C196.729 33.5398 196.799 33.2181 196.799 29.6336V17.4782C196.799 13.9166 196.568 13.3421 194.793 13.2043L193.916 13.1353C193.709 12.9975 193.778 12.4 193.985 12.2852C195.646 12.3081 196.799 12.3771 198.274 12.3771C199.612 12.3771 200.834 12.3311 202.217 12.2852C202.425 12.3771 202.494 12.9975 202.286 13.1353L201.641 13.2043C199.681 13.4111 199.612 13.9166 199.612 17.4782V21.3615C199.612 22.3955 199.681 22.4415 201.295 22.4415H211.002C212.64 22.4415 212.709 22.4185 212.709 21.3615V17.4782C212.709 13.9166 212.64 13.4111 210.633 13.2043L209.988 13.1353C209.78 12.9975 209.849 12.4 210.057 12.2852C211.625 12.3541 212.778 12.3771 214.184 12.3771C215.499 12.3771 216.675 12.3311 218.197 12.2852C218.404 12.3771 218.473 12.9975 218.266 13.1353L217.551 13.2043C215.591 13.4111 215.499 13.9166 215.499 17.4782V29.6336C215.499 33.2181 215.568 33.6547 217.551 33.8845L218.358 33.9764C218.565 34.1143 218.496 34.7117 218.289 34.8266C216.652 34.7577 215.499 34.7347 214.184 34.7347C212.778 34.7347 211.556 34.7807 210.057 34.8266C209.849 34.7347 209.78 34.1832 209.988 33.9764L210.633 33.8845C212.709 33.5398 212.709 33.2181 212.709 29.6336V24.8771C212.709 23.8661 212.64 23.7972 211.002 23.7972H201.295Z" fill="#203B7E"/>
        <path d="M236.62 29.6554C236.62 33.2399 236.69 33.7455 238.65 33.9063L239.733 33.9982C239.941 34.1131 239.872 34.7335 239.664 34.8254C237.727 34.7565 236.574 34.7335 235.214 34.7335C233.853 34.7335 232.654 34.7795 230.487 34.8254C230.279 34.7335 230.21 34.1591 230.487 33.9982L231.709 33.9063C233.646 33.7455 233.83 33.2399 233.83 29.6554V14.5358C233.83 13.4788 233.83 13.4559 232.816 13.4559H230.948C229.495 13.4559 227.605 13.5248 226.775 14.306C225.968 15.0413 225.622 15.7766 225.253 16.6268C224.976 16.8336 224.515 16.6728 224.354 16.397C224.907 14.8575 225.414 12.6976 225.645 11.3419C225.737 11.2729 226.198 11.25 226.29 11.3419C226.498 12.4218 227.605 12.3989 229.173 12.3989H242.915C244.76 12.3989 245.06 12.3299 245.567 11.4568C245.728 11.3878 246.097 11.4338 246.167 11.5717C245.798 12.9733 245.567 15.7077 245.659 16.7187C245.521 16.9945 244.944 16.9945 244.783 16.7647C244.691 15.9375 244.437 14.6737 243.93 14.306C243.146 13.7316 241.855 13.4559 239.987 13.4559H237.566C236.551 13.4559 236.574 13.4788 236.574 14.6048V29.6554H236.62Z" fill="#203B7E"/>
        <path d="M252.346 23.7948C252.346 17.0392 257.465 11.8691 264.451 11.8691C272.291 11.8691 276.234 17.5217 276.234 23.4501C276.234 30.3205 271.023 35.2838 264.451 35.2838C256.911 35.2838 252.346 29.9069 252.346 23.7948ZM272.844 24.5071C272.844 18.9464 270.377 12.9032 263.875 12.9032C260.347 12.9032 255.758 15.3159 255.758 22.7148C255.758 27.724 258.226 34.2268 264.912 34.2268C268.971 34.2268 272.867 31.1937 272.867 24.5071" fill="#203B7E"/>
        <path d="M304.689 28.9892C304.689 30.0002 304.689 34.0444 304.782 34.9175C304.712 35.1014 304.505 35.2852 304.113 35.2852C303.698 34.7107 302.729 33.5159 299.755 30.1611L291.869 21.2226C290.947 20.1886 288.641 17.4082 287.926 16.6729H287.857C287.719 17.0636 287.672 17.8448 287.672 18.8788V26.2548C287.672 27.8633 287.719 32.2521 288.295 33.2631C288.479 33.6308 289.171 33.8376 290.024 33.9065L291.062 33.9984C291.269 34.2741 291.223 34.6648 290.993 34.8486C289.471 34.7797 288.272 34.7567 287.027 34.7567C285.597 34.7567 284.675 34.8026 283.499 34.8486C283.268 34.6877 283.245 34.2052 283.43 33.9984L284.352 33.9065C285.136 33.7916 285.666 33.6078 285.851 33.2401C286.335 32.0223 286.289 27.8862 286.289 26.2548V16.4891C286.289 15.547 286.266 14.8347 285.551 14.0534C285.067 13.5709 284.26 13.3411 283.453 13.2492L282.876 13.1803C282.669 12.9964 282.669 12.4679 282.945 12.3301C284.375 12.422 286.174 12.422 286.773 12.422C287.303 12.422 287.903 12.376 288.341 12.3301C289.01 14.0534 293.022 18.5112 294.152 19.775L297.449 23.4515C299.801 26.071 301.461 27.9782 303.052 29.5866H303.121C303.237 29.4028 303.237 28.8513 303.237 28.139V20.9009C303.237 19.3154 303.214 14.9266 302.568 13.9156C302.36 13.5939 301.807 13.3871 300.447 13.2492L299.87 13.1803C299.64 12.9964 299.663 12.445 299.939 12.3301C301.484 12.376 302.66 12.422 303.951 12.422C305.427 12.422 306.28 12.376 307.456 12.3301C307.71 12.5139 307.71 12.9735 307.525 13.1803L307.041 13.2492C305.957 13.4101 305.266 13.6858 305.127 13.9615C304.551 15.1794 304.62 19.3614 304.62 20.9239V29.0122L304.689 28.9892Z" fill="#203B7E"/>
        <path d="M115.451 58.3076C118.287 56.1017 121.907 55.0217 125.942 55.0217C128.04 55.0217 130.992 55.4353 132.813 55.9409C133.275 56.0557 133.551 56.1247 133.897 56.1017C133.943 56.9749 134.128 59.4335 134.427 61.8002C134.243 62.053 133.643 62.099 133.39 61.8692C132.813 59.2267 131.061 56.2166 125.435 56.2166C119.486 56.2166 114.436 59.962 114.436 67.9813C114.436 76.0007 119.601 80.5963 125.965 80.5963C130.969 80.5963 133.205 77.3334 134.082 75.0586C134.358 74.8518 134.935 74.9437 135.096 75.2194C134.819 77.2415 133.805 79.7921 133.228 80.5274C132.767 80.6193 132.306 80.7801 131.868 80.918C131.015 81.2397 128.225 81.8141 125.735 81.8141C122.23 81.8141 118.886 81.1248 116.073 79.2176C112.96 77.0807 110.562 73.565 110.562 68.6017C110.562 64.3049 112.499 60.6284 115.451 58.3306" fill="#203B7E"/>
        <path d="M142.312 70.2572C142.312 63.4787 147.408 58.3086 154.395 58.3086C162.258 58.3086 166.201 63.9612 166.201 69.9125C166.201 76.76 160.967 81.7233 154.395 81.7233C146.855 81.7233 142.312 76.3234 142.312 70.2342M162.811 70.9695C162.811 65.3629 160.321 59.3426 153.842 59.3426C150.291 59.3426 145.725 61.7553 145.725 69.1542C145.725 74.1635 148.169 80.6663 154.856 80.6663C158.937 80.6663 162.811 77.6332 162.811 70.9695Z" fill="#203B7E"/>
        <path d="M176.345 63.9147C176.345 60.3761 176.276 59.8246 174.131 59.6638L173.301 59.5719C173.094 59.434 173.163 58.8366 173.37 58.7217C175.284 58.7906 176.437 58.8136 177.797 58.8136C179.158 58.8136 180.288 58.7906 181.971 58.7217C182.178 58.8136 182.248 59.434 182.04 59.5719L181.233 59.6638C179.227 59.8246 179.158 60.3761 179.158 63.9147V75.7024C179.158 77.8164 179.273 78.7126 179.873 79.356C180.242 79.7466 180.887 80.1372 183.562 80.1372C186.444 80.1372 187.159 79.9993 187.712 79.7006C188.381 79.287 189.28 78.0922 189.972 76.3458C190.18 76.185 190.825 76.3458 190.825 76.5756C190.825 76.9433 189.88 80.39 189.396 81.3091C187.666 81.2402 184.438 81.1942 180.933 81.1942H177.82C176.391 81.1942 175.307 81.2402 173.393 81.3091C173.186 81.1942 173.117 80.6657 173.324 80.4589L174.339 80.344C176.299 80.1372 176.368 79.6777 176.368 76.1161V63.9147H176.345Z" fill="#203B7E"/>
        <path d="M199.405 63.9147C199.405 60.3761 199.336 59.8246 197.192 59.6638L196.338 59.5719C196.131 59.434 196.2 58.8366 196.408 58.7217C198.298 58.7906 199.451 58.8136 200.835 58.8136C202.149 58.8136 203.279 58.7906 204.985 58.7217C205.193 58.8136 205.262 59.434 205.054 59.5719L204.247 59.6638C202.241 59.8246 202.172 60.3761 202.172 63.9147V75.7024C202.172 77.8164 202.264 78.7126 202.887 79.356C203.256 79.7466 203.902 80.1372 206.576 80.1372C209.459 80.1372 210.173 79.9993 210.727 79.7006C211.395 79.287 212.295 78.0922 212.963 76.3458C213.171 76.185 213.817 76.3458 213.817 76.5756C213.817 76.9433 212.871 80.39 212.387 81.3091C210.634 81.2402 207.406 81.1942 203.925 81.1942H200.835C199.382 81.1942 198.298 81.2402 196.408 81.3091C196.2 81.1942 196.131 80.6657 196.338 80.4589L197.353 80.344C199.336 80.1372 199.382 79.6777 199.382 76.1161V63.9147H199.405Z" fill="#203B7E"/>
        <path d="M222.439 63.9147C222.439 60.3991 222.37 59.8936 220.364 59.6638L219.811 59.5719C219.603 59.434 219.672 58.8366 219.88 58.7217C221.333 58.7906 222.509 58.8136 223.892 58.8136H230.279C232.447 58.8136 234.453 58.8136 234.868 58.7217C235.075 59.3191 235.26 61.7548 235.398 63.2254C235.26 63.4092 234.729 63.5011 234.545 63.2943C234.038 61.6858 233.738 60.514 231.962 60.0774C231.271 59.8936 230.164 59.8706 228.665 59.8706H226.221C225.206 59.8706 225.206 59.9395 225.206 61.2263V67.9818C225.206 68.9469 225.299 68.9469 226.336 68.9469H228.296C229.726 68.9469 230.763 68.878 231.201 68.7401C231.593 68.6252 231.847 68.3954 232.008 67.5452L232.285 66.1666C232.47 65.9598 233.046 65.9598 233.184 66.2125C233.184 67.0168 233.046 68.3265 233.046 69.6362C233.046 70.8541 233.184 72.1408 233.184 72.8761C233.046 73.1289 232.47 73.1289 232.285 72.9221L231.985 71.5894C231.87 70.992 231.616 70.4864 230.948 70.3026C230.464 70.1647 229.657 70.1418 228.342 70.1418H226.382C225.368 70.1418 225.252 70.1647 225.252 71.0609V75.8173C225.252 77.6326 225.345 78.7815 225.898 79.356C226.29 79.7696 227.005 80.1372 230.002 80.1372C232.608 80.1372 233.576 79.9993 234.337 79.6317C234.96 79.287 235.882 78.1151 236.758 76.3458C237.012 76.185 237.473 76.2769 237.612 76.5986C237.381 77.7935 236.528 80.39 236.067 81.3091C233 81.2402 230.002 81.1942 226.959 81.1942H223.892C222.439 81.1942 221.286 81.2402 219.28 81.3091C219.073 81.1942 219.004 80.6657 219.211 80.4589L220.341 80.344C222.278 80.1832 222.439 79.6777 222.439 76.1161V63.9147Z" fill="#203B7E"/>
        <path d="M264.222 77.7485C264.222 79.1042 264.407 79.9084 265.029 80.1382C265.144 80.2301 265.144 80.4369 265.006 80.5518C264.614 80.5518 263.991 80.6667 263.346 80.8505C261.524 81.3331 259.08 81.7467 257.259 81.7467C253.2 81.7467 249.511 80.6208 246.882 77.9783C244.853 75.9562 243.77 73.2908 243.77 70.3036C243.77 67.3165 244.715 64.5131 246.813 62.2842C249.096 59.9175 252.439 58.332 257.604 58.332C259.541 58.332 261.34 58.6997 261.893 58.8375C262.562 58.9754 263.623 59.2052 264.015 59.1363C264.015 60.2622 264.245 62.0085 264.522 64.0536C264.407 64.3063 263.807 64.3523 263.623 64.1455C262.677 60.492 260.118 59.3431 256.636 59.3431C250.041 59.3431 247.159 64.0076 247.159 69.0858C247.159 75.5886 250.526 80.6897 257.351 80.6897C259.449 80.6897 260.74 80.2531 261.109 79.6786C261.271 79.4489 261.455 78.8285 261.455 77.7485V76.3928C261.455 73.5435 261.34 73.3367 259.242 73.1069L257.72 72.9231C257.466 72.7852 257.512 72.1878 257.72 72.0729C258.734 72.1418 260.579 72.1878 262.608 72.1878C263.945 72.1878 265.075 72.1418 266.205 72.0729C266.436 72.2108 266.482 72.7163 266.205 72.9231L265.675 72.992C264.245 73.1759 264.222 74.118 264.222 75.8413V77.7485Z" fill="#203B7E"/>
        <path d="M276.165 63.9147C276.165 60.3991 276.096 59.8936 274.09 59.6638L273.559 59.5719C273.329 59.434 273.421 58.8366 273.628 58.7217C275.104 58.7906 276.234 58.8136 277.64 58.8136H284.028C286.218 58.8136 288.201 58.8136 288.616 58.7217C288.824 59.3191 289.008 61.7548 289.146 63.2254C289.008 63.4092 288.478 63.5011 288.293 63.2943C287.786 61.6858 287.486 60.514 285.711 60.0774C284.996 59.8936 283.912 59.8706 282.414 59.8706H279.969C278.955 59.8706 278.955 59.9395 278.955 61.2263V67.9818C278.955 68.9469 279.047 68.9469 280.062 68.9469H282.045C283.474 68.9469 284.535 68.878 284.927 68.7401C285.342 68.6252 285.572 68.3954 285.734 67.5452L286.011 66.1666C286.172 65.9598 286.748 65.9598 286.887 66.2125C286.887 67.0168 286.748 68.3265 286.748 69.6362C286.748 70.8541 286.887 72.1408 286.887 72.8761C286.748 73.1289 286.172 73.1289 286.011 72.9221L285.711 71.5894C285.572 70.992 285.342 70.4864 284.65 70.3026C284.166 70.1647 283.359 70.1418 282.045 70.1418H280.062C279.047 70.1418 278.955 70.1647 278.955 71.0609V75.8173C278.955 77.6326 279.047 78.7815 279.6 79.356C280.015 79.7696 280.73 80.1372 283.705 80.1372C286.333 80.1372 287.302 79.9993 288.063 79.6317C288.662 79.287 289.585 78.1151 290.484 76.3458C290.737 76.185 291.176 76.2769 291.337 76.5986C291.106 77.7935 290.253 80.39 289.815 81.3091C286.748 81.2402 283.728 81.1942 280.684 81.1942H277.64C276.165 81.1942 275.035 81.2402 273.006 81.3091C272.821 81.1942 272.752 80.6657 272.937 80.4589L274.066 80.344C276.003 80.1832 276.165 79.6777 276.165 76.1161V63.9147Z" fill="#203B7E"/>
        <path d="M305.702 46.4512H96.6797V47.2554H305.702V46.4512Z" fill="#B48D00"/>
        <path d="M307.502 46.8198L309.785 44.5449L312.067 46.8198L309.785 49.1176L307.502 46.8198ZM309.785 47.9687L310.938 46.8198L309.785 45.6709L308.632 46.8198L309.785 47.9687Z" fill="#B48D00"/>
        <path d="M89.832 46.8422L92.1148 44.5674L94.3975 46.8422L92.1148 49.14L89.832 46.8422ZM92.1148 47.9911L93.2677 46.8422L92.1148 45.6933L90.9619 46.8422L92.1148 47.9911Z" fill="#B48D00"/>
    </g>
</svg>
