<svg width="187" height="155" viewBox="0 0 187 155" fill="none" xmlns="http://www.w3.org/2000/svg">
    <g clip-path="url(#clip0_875_6022)">
        <mask id="mask0_875_6022" style="mask-type:luminance" maskUnits="userSpaceOnUse" x="-1" y="0" width="188" height="155">
            <path d="M186.998 0H-0.00195312V155H186.998V0Z" fill="white"/>
        </mask>
        <g mask="url(#mask0_875_6022)">
            <path d="M122.7 0V40.4221C122.7 61.4378 101.163 74.7373 93.4797 74.7373C85.7964 74.7373 64.2598 61.4184 64.2598 40.4221V0H122.68H122.7ZM122.331 0.368355H64.6284V40.4221C64.6284 61.05 86.068 74.3884 93.4797 74.3884C100.891 74.3884 122.331 61.05 122.331 40.4221V0.368355Z" fill="white"/>
            <path d="M71.1845 17.5259L72.5815 16.5953L72.1352 15.9168L72.4457 15.7229L73.5322 17.3708L73.2218 17.5647L72.7755 16.9055L71.3785 17.8361L72.2904 19.232L75.6665 17.0024L74.0561 14.5597C73.5904 14.7535 73.0471 14.5984 72.7561 14.1719C72.4457 13.6873 72.5815 13.0475 73.0665 12.7179C73.5516 12.4077 74.1919 12.5434 74.5217 13.0281C74.8128 13.4546 74.7352 14.0168 74.3665 14.3658L75.9769 16.8086L77.1022 16.0525L99.7448 50.3289L101.278 52.6554C102.461 56.5328 101.161 57.3858 101.976 57.7736C102.888 58.2389 104.692 58.394 105.721 57.7348C106.749 57.0563 107.292 55.3502 107.234 54.3227C107.215 53.4115 105.915 54.2645 102.81 51.6666L101.278 49.3402L71.0487 3.56717C70.7577 3.19881 70.2338 3.10188 69.8263 3.35391C69.4189 3.62533 69.3025 4.14878 69.5353 4.55591V4.5753C69.5353 4.5753 69.5353 4.59469 69.5353 4.61407C69.5353 4.61407 69.5353 4.61407 69.5547 4.63346L70.6606 6.30075L69.5353 7.03746L71.1457 9.48024C71.592 9.28637 72.1546 9.44147 72.4457 9.86799C72.7561 10.3527 72.6203 10.9924 72.1546 11.322C71.6696 11.6322 71.0099 11.5159 70.6995 11.0312C70.4084 10.6047 70.486 10.0425 70.8547 9.6935L69.2443 7.27011L65.8683 9.49963L66.9354 11.1088L68.3324 10.1782L67.8861 9.49963L68.1965 9.30576L69.2831 10.9537L68.992 11.1475L68.5458 10.4884L67.1294 11.419L67.7503 12.3495L65.4414 13.8811L66.6832 15.7617L68.992 14.2301C68.798 13.7842 68.9532 13.222 69.3801 12.9505C69.8651 12.6403 70.5054 12.7567 70.8353 13.2413C71.1457 13.726 71.0293 14.3658 70.5442 14.6954C70.1174 14.9862 69.5547 14.9086 69.2055 14.5403L66.8966 16.0525L68.1383 17.933L70.4472 16.4014L71.2039 17.5453L71.1845 17.5259ZM102.927 54.2451L103.004 53.586L103.664 53.7798C105.158 55.0206 105.779 54.6135 105.798 55.0594C105.837 55.5441 105.566 56.3777 105.08 56.7073C104.595 57.0175 103.722 56.9399 103.295 56.7267C102.888 56.5328 103.528 56.1451 102.966 54.2645" fill="#B48D00"/>
            <path d="M106.131 49.4178C105.239 49.2239 104.734 49.5147 104.462 49.7862C103.88 50.3678 103.958 51.3371 104.074 51.8412C104.094 51.9963 104.152 52.1514 104.249 52.2871C104.579 52.7718 105.2 52.9269 105.627 52.6361C106.073 52.3452 106.17 51.7055 105.84 51.2208C105.704 51.0269 105.53 50.8718 105.336 50.7943C105.336 50.7361 105.374 50.7167 105.394 50.6973C105.413 50.678 105.549 50.6198 105.859 50.6973C107.703 51.0657 108.944 51.9769 109.507 53.3922C110.186 55.0594 109.74 56.9594 109.526 57.2696L109.449 57.4441C109.371 57.5604 109.216 57.6961 109.1 57.7155C109.041 57.7155 108.828 57.7155 108.576 57.6767C108.653 57.1533 108.382 56.6492 107.916 56.5329C107.412 56.3972 106.868 56.7267 106.713 57.289C106.655 57.5216 106.655 57.7736 106.733 57.9869C106.616 57.8512 106.5 57.7155 106.403 57.5798L106.073 57.793L105.704 58.0451L105.374 58.2583C105.452 58.4134 105.53 58.5491 105.607 58.7042C105.452 58.5491 105.239 58.4522 104.986 58.4134C104.404 58.3359 103.88 58.7042 103.803 59.2277C103.745 59.7123 104.094 60.1583 104.598 60.294C104.54 60.546 104.462 60.7399 104.424 60.798C104.365 60.895 104.171 60.9919 104.036 61.0113H103.842C103.454 61.0694 101.533 60.7399 100.272 59.4603C99.185 58.3746 98.8358 56.8818 99.2238 55.0401C99.282 54.7299 99.3791 54.6329 99.3985 54.6135C99.4179 54.6135 99.4567 54.6135 99.5149 54.6135C99.5149 54.8268 99.5731 55.0401 99.7089 55.2533C100.039 55.738 100.66 55.8931 101.086 55.6023C101.533 55.3115 101.63 54.6717 101.3 54.187C101.203 54.0513 101.086 53.935 100.951 53.8574C100.524 53.5473 99.6701 53.082 98.894 53.3922C98.5448 53.5279 98.0791 53.8962 97.9045 54.788C97.2448 57.9287 98.5254 59.7705 99.7089 60.7786C101.203 62.0194 103.337 62.5235 104.171 62.2714H104.21C104.404 62.2327 104.754 62.1745 105.083 61.9613C105.258 61.8449 105.413 61.6898 105.549 61.4766C105.801 61.0501 106.034 60.2552 105.898 59.4991C106.519 61.0307 106.771 62.7174 105.859 63.9775C106.17 63.9 107.489 63.6285 107.47 62C107.47 61.9031 107.47 61.8255 107.45 61.7286C107.45 61.748 107.47 61.7674 107.489 61.8062C107.838 62.5429 107.838 62.601 108.013 62.9306C108.188 63.2408 108.13 63.6479 109.759 63.8418C110.206 62.2714 109.818 62.1745 109.604 61.8837C109.391 61.5929 109.332 61.5541 108.77 60.9531C108.75 60.9337 108.731 60.9144 108.712 60.8756C108.789 60.9144 108.886 60.9725 108.983 61.0113C110.477 61.6898 111.234 60.5848 111.428 60.3134C109.895 60.6429 108.44 59.7317 107.256 58.5685C107.897 58.995 108.75 59.092 109.255 59.0338C109.507 58.995 109.721 58.9175 109.895 58.8012C110.225 58.5879 110.419 58.2777 110.516 58.1226V58.0838C111.079 57.4247 111.467 55.2533 110.904 53.3922C110.458 51.9187 109.255 50.0188 106.112 49.379" fill="#B48D00"/>
            <path d="M116.567 16.4015L118.875 17.9137L120.117 16.0332L117.808 14.521C117.459 14.8893 116.896 14.9475 116.47 14.6761C115.985 14.3659 115.849 13.7067 116.179 13.222C116.508 12.7374 117.149 12.6017 117.634 12.9312C118.061 13.222 118.216 13.7649 118.022 14.2108L120.331 15.7424L121.572 13.8618L119.264 12.3496L119.884 11.419L118.487 10.4885L118.041 11.1476L117.731 10.9538L118.817 9.30585L119.128 9.49972L118.681 10.1783L120.078 11.1089L121.146 9.49972L117.77 7.2702L116.159 9.69359C116.528 10.0426 116.605 10.6048 116.314 11.0313C116.004 11.516 115.344 11.6517 114.859 11.3221C114.374 10.9925 114.238 10.3528 114.568 9.86807C114.859 9.44156 115.402 9.28646 115.868 9.48033L117.479 7.03756L116.353 6.30085L117.459 4.63355C117.459 4.63355 117.459 4.63355 117.479 4.61417C117.479 4.61417 117.479 4.59478 117.479 4.57539H117.498V4.556C117.731 4.14887 117.614 3.60604 117.207 3.354C116.799 3.08258 116.276 3.19891 115.985 3.56726L85.7557 49.3209L84.2229 51.6473C81.1185 54.2452 79.8186 53.3728 79.7992 54.3033C79.741 55.3309 80.2842 57.0369 81.3125 57.7155C82.3409 58.394 84.1259 58.2195 85.0572 57.7543C85.8915 57.3665 84.5915 56.5135 85.7557 52.6361L87.2885 50.3096L109.931 16.0332L111.076 16.7699L112.686 14.3271C112.318 13.9781 112.24 13.4159 112.531 12.9894C112.841 12.5047 113.501 12.369 113.986 12.6792C114.471 13.0088 114.607 13.6486 114.277 14.1332C113.986 14.5598 113.443 14.7149 112.977 14.521L111.367 16.9638L114.743 19.1933L115.655 17.7974L114.258 16.8668L113.811 17.526L113.501 17.3321L114.588 15.6842L114.898 15.8781L114.452 16.5566L115.849 17.4872L116.605 16.3434L116.567 16.4015ZM83.7378 56.7074C83.2916 56.9206 82.4379 57.0175 81.9528 56.688C81.4678 56.3584 81.1961 55.5441 81.2349 55.0401C81.2349 54.5942 81.8752 55.0207 83.3498 53.7605L84.0095 53.586L84.0871 54.2452C83.5244 56.1063 84.1453 56.5135 83.7572 56.7074" fill="#B48D00"/>
            <path d="M80.867 49.4178C81.7595 49.2239 82.264 49.5147 82.5356 49.7862C83.1177 50.3678 83.0401 51.3371 82.9237 51.8412C82.9043 51.9963 82.8461 52.1514 82.7491 52.2871C82.4192 52.7718 81.7983 52.9269 81.3715 52.6361C80.9252 52.3452 80.8282 51.7055 81.1581 51.2208C81.2939 51.0269 81.4685 50.8718 81.6625 50.7943C81.6625 50.7361 81.6237 50.7167 81.6043 50.6973C81.5849 50.678 81.4491 50.6198 81.1387 50.6973C79.2954 51.0657 78.0537 51.9769 77.491 53.3922C76.8119 55.0594 77.2582 56.9594 77.4716 57.2696L77.5492 57.4441C77.6268 57.5604 77.7821 57.6961 77.8985 57.7155C77.9567 57.7155 78.1701 57.7155 78.4223 57.6767C78.3447 57.1533 78.6164 56.6492 79.082 56.5329C79.5865 56.3972 80.1297 56.7267 80.285 57.289C80.3432 57.5216 80.3432 57.7736 80.2656 57.9869C80.382 57.8512 80.4984 57.7155 80.5954 57.5798L80.9252 57.793L81.2939 58.0451L81.6237 58.2583C81.5461 58.4134 81.4685 58.5491 81.3909 58.7042C81.5461 58.5491 81.7595 58.4522 82.0118 58.4134C82.5938 58.3359 83.1177 58.7042 83.1953 59.2277C83.2535 59.7123 82.9043 60.1583 82.3998 60.294C82.458 60.546 82.555 60.7399 82.5744 60.798C82.6326 60.895 82.8267 60.9919 82.9625 61.0113H83.1565C83.5446 61.0694 85.4654 60.7399 86.7265 59.4603C87.8131 58.3746 88.1623 56.8818 87.7743 55.0401C87.7161 54.7299 87.6191 54.6329 87.5997 54.6135C87.5802 54.6135 87.5414 54.6135 87.4832 54.6135C87.4832 54.8268 87.425 55.0401 87.2892 55.2533C86.9594 55.738 86.3385 55.8931 85.9116 55.6023C85.4654 55.3115 85.3684 54.6717 85.6982 54.187C85.7952 54.0513 85.9116 53.935 86.0475 53.8574C86.4743 53.5473 87.328 53.082 88.1041 53.3922C88.4534 53.5279 88.919 53.8962 89.0936 54.788C89.7533 57.9287 88.4728 59.7705 87.2892 60.7786C85.7952 62.0194 83.661 62.5235 82.8267 62.2714H82.7879C82.5938 62.2327 82.2446 62.1745 81.9148 61.9613C81.7401 61.8449 81.5849 61.6898 81.4491 61.4766C81.1969 61.0501 80.964 60.2552 81.0805 59.4991C80.4596 61.0307 80.2074 62.7174 81.1193 63.9775C80.8088 63.9 79.4895 63.6285 79.5089 62C79.5089 61.9031 79.5089 61.8255 79.5283 61.7286C79.5283 61.748 79.5089 61.7674 79.4895 61.8062C79.1402 62.5429 79.1402 62.601 78.9656 62.9306C78.791 63.2408 78.8492 63.6479 77.2194 63.8418C76.7731 62.2714 77.1418 62.1745 77.3746 61.8837C77.6074 61.5929 77.6462 61.5541 78.2089 60.9531C78.2283 60.9337 78.2477 60.9144 78.2671 60.8756C78.1895 60.9144 78.0925 60.9725 77.9955 61.0113C76.5015 61.6898 75.7448 60.5848 75.5508 60.3134C77.0836 60.6429 78.5387 59.7317 79.7223 58.5685C79.082 58.995 78.2283 59.092 77.7239 59.0338C77.4716 58.995 77.2582 58.9175 77.0836 58.8012C76.7537 58.5879 76.5597 58.2777 76.4627 58.1226V58.0838C75.9 57.4247 75.512 55.2533 76.0746 53.3922C76.5209 51.9187 77.7238 50.0188 80.867 49.379" fill="#B48D00"/>
            <path d="M87.5421 17.7004V14.9087C86.4361 14.7342 85.6794 15.3546 85.3496 15.723V18.4372C85.7571 18.0494 86.5137 17.5454 87.5421 17.7004Z" fill="#B48D00"/>
            <path d="M85.3491 8.93746C85.776 8.54972 86.5133 8.06504 87.5222 8.22014V4.82739C85.9118 5.13759 85.2521 6.12633 85.3491 6.86304V8.95685V8.93746Z" fill="#B48D00"/>
            <path d="M87.5422 8.43337C86.4363 8.25889 85.699 8.85989 85.3691 9.24763V12.1169C85.7766 11.7292 86.5333 11.2251 87.5422 11.3802V8.43337Z" fill="#B48D00"/>
            <path d="M87.5422 11.6129C86.4363 11.4384 85.699 12.0588 85.3691 12.4271V15.3934C85.796 15.0056 86.5333 14.5015 87.5422 14.6566V11.5935V11.6129Z" fill="#B48D00"/>
            <path d="M83.9729 43.5822C83.352 44.0669 83.1386 44.1444 82.4789 44.2607C80.0536 43.3302 81.2178 41.0813 81.955 39.9762C84.2251 37.7661 84.1087 35.3233 83.8177 33.8499L83.7401 33.9274C83.7401 33.9274 83.6819 33.8693 83.6042 33.8111C82.9058 33.2295 82.5953 32.5897 82.4401 32.105C82.3625 32.3958 82.2655 32.706 82.1103 33.0356C82.0521 33.1132 82.0326 33.1907 81.9938 33.2876C81.955 33.3846 81.9162 33.4815 81.8386 33.5978L81.664 33.908V33.5591C81.664 33.5591 81.567 33.3652 81.3924 33.0938C81.0043 32.4152 81.276 31.4652 81.373 31.1163V31.0581C81.6446 29.9531 81.6446 29.449 81.5476 28.7704C81.1013 27.7817 80.7909 27.7041 80.5969 27.646H80.5581C79.588 27.3552 79.5297 26.9868 79.4715 26.6572C79.4715 26.5991 79.4715 26.5215 79.4327 26.4634L79.6074 26.4246C79.6074 26.4246 79.6462 26.5603 79.6462 26.6379C79.685 26.948 79.7238 27.2195 80.5775 27.4715H80.6163C80.8491 27.5297 81.3148 27.646 81.8968 29.197C82.0326 29.6041 82.1103 30.0112 82.2849 30.8449L82.4595 31.6591C82.5565 32.0662 82.7893 32.9387 83.6819 33.656C83.7013 33.6754 83.7207 33.6948 83.7401 33.7142C83.643 33.2682 83.546 32.9193 83.5072 32.706C83.5848 32.0081 83.5072 31.4652 83.5072 30.5541C83.5072 30.5541 83.5072 30.1081 83.1968 29.2551C82.8864 28.4021 83.0028 27.9756 83.0222 27.2389C83.0804 26.0175 80.4611 23.7104 80.2088 23.439C79.976 23.1676 79.1029 20.2595 79.1223 20.9768C79.1223 21.3258 78.9283 22.4502 78.6178 22.7217C78.288 21.0737 78.2492 21.9462 77.8805 22.7217C77.4731 20.1044 77.1433 22.5859 76.8716 23.3614C76.3672 20.8799 76.1343 22.9543 75.9597 23.4002C75.0478 23.5747 74.815 25.0481 74.9896 26.0562C74.4463 25.5522 74.5821 26.4246 75.0866 27.2001C74.0777 27.0256 75.4553 28.4409 75.9597 28.9449C74.7568 28.8092 75.8239 29.5459 76.4642 29.9531C77.1044 30.3602 77.7059 31.1357 77.8805 32.6091C78.0552 34.0825 77.3761 33.7529 76.9686 33.6172C71.7882 28.15 74.718 23.7104 75.3582 22.7798C78.1716 15.9362 75.3582 20.5697 74.4851 22.14C74.2329 19.8136 73.7866 20.1238 73.3404 21.1125C73.224 21.3839 72.9717 21.6941 72.8359 22.0043C72.7195 22.3339 72.6225 22.6247 72.5061 22.9155C72.3897 23.2257 72.3703 23.5359 72.2733 23.7492C71.3031 18.0106 71.0121 18.8442 70.5464 20.8799C70.5076 21.0931 70.2942 21.2676 70.2554 21.5003C70.1584 21.9268 70.1002 22.4115 69.9838 22.838C69.9062 23.1482 69.9062 23.4584 69.8092 23.7492C67.2868 17.5453 67.8883 21.0931 67.8301 24.6216C68.0047 25.9011 68.3928 26.9868 68.4704 27.646C66.2585 24.2338 66.1809 24.9318 66.6466 26.696C66.8018 27.2389 66.8794 27.898 67.0928 28.5766C67.2092 28.9643 67.3451 29.5265 67.4615 29.9143C67.6943 30.6316 68.0047 31.0969 68.1017 31.5622C65.8899 29.6622 66.1421 30.5153 66.8988 31.8142C67.054 32.0856 67.0734 32.5122 67.2674 32.803C67.4809 33.1325 67.7137 33.4621 67.9077 33.7529C68.2182 34.1988 68.645 34.4315 68.7808 34.6253C65.7929 34.1213 66.2973 34.6835 67.4227 35.3233C67.5779 35.4008 67.6555 35.6335 67.8301 35.7304C68.1017 35.8855 68.3928 36.0212 68.6838 36.1569C69.1107 36.3702 69.5569 36.409 69.7704 36.5059C65.9481 36.6416 71.6912 37.7467 72.6613 37.7467C72.4285 38.115 72.021 38.716 71.5166 39.2976C71.0121 39.8986 70.6047 40.1701 69.5957 40.8486C68.3152 41.6241 68.0823 42.0312 67.1122 43.0587L72.2927 43.7373C72.2927 43.7373 72.5643 43.5628 72.7971 43.3302C75.3776 42.0894 74.6792 42.8649 75.009 43.1945C76.2507 46.277 75.9791 47.1882 75.6105 47.7892C74.6015 48.4678 74.0971 47.9637 73.6314 47.5953C73.1658 47.227 72.6225 47.5953 71.7106 48.0606C72.6225 47.9249 72.5837 48.2351 72.6225 48.4678C72.3509 49.5728 73.2628 49.3014 74.2329 48.8361C76.6776 48.429 76.8134 49.1075 77.0268 49.5147C77.0268 50.7167 77.3567 50.7167 77.7641 50.7554C78.1716 50.7942 77.9582 51.0269 77.9 51.6279C79.3163 49.5147 78.4432 49.282 78.0746 49.0106C77.1045 48.5453 77.3373 48.1769 77.4343 47.9637C79.2193 48.7004 80.1506 48.0994 80.5969 47.8668C81.0625 47.6341 80.8297 48.2739 80.7327 48.7004C82.1103 47.9249 80.9655 47.1494 80.4999 46.9168C79.1223 46.4515 78.2492 46.9168 77.7059 47.1882C77.1627 47.4596 77.0656 47.4209 76.794 47.2851C76.4642 46.1413 77.1238 45.676 77.9387 44.3577C78.7731 43.02 80.6939 44.2607 81.1595 44.7648C80.7521 44.7648 80.3252 44.8036 79.7432 44.726C78.7731 44.5322 78.191 45.2689 77.7253 45.9668C77.9582 45.7342 78.094 45.8311 78.2686 45.8699C79.0059 46.1025 79.1805 46.0056 79.879 45.7342C82.0909 44.9005 82.4983 45.7342 82.8281 46.0056C83.5072 46.878 83.7401 46.9749 84.3415 46.9168C85.3117 46.6841 85.2146 47.0525 85.3505 47.4208C86.8638 45.8505 84.943 45.9087 84.2057 45.8117C83.4684 45.7148 83.1968 45.5403 82.5953 45.1138C83.1774 44.7648 83.546 44.7454 84.0699 44.6097C85.3117 44.2607 85.3893 43.8342 85.5057 43.2914C85.9907 42.9812 86.6892 43.4077 86.9803 43.3496C85.6415 42.1282 84.555 43.02 83.9341 43.5047M80.5193 25.4165C80.5193 25.4165 81.0043 25.9593 81.373 26.1726C81.4894 26.2501 82.0715 26.6379 82.0326 27.045C82.0326 27.0838 82.0326 27.1031 82.0326 27.1419C82.0326 27.4133 81.9356 27.5297 81.4894 27.5297C81.4312 27.5297 81.3924 27.5297 81.3342 27.5297H81.276C81.0431 27.4327 80.4805 27.2195 80.364 25.5134V25.242L80.5387 25.4552L80.5193 25.4165ZM79.4327 29.6429C79.1223 29.0031 77.7641 28.6347 77.085 27.8592C76.3284 26.9093 76.6194 25.9593 76.697 25.5328C77.0462 24.3696 77.997 25.0675 78.2298 25.2808C78.4626 25.494 78.6372 25.9399 78.7148 26.2695C78.8119 27.3552 79.6268 27.8011 80.2476 28.2082C80.8685 28.6153 81.0043 29.0225 81.0237 29.3133C80.8879 29.6429 80.9849 30.3796 81.0625 30.7285C81.0625 30.7285 80.5193 30.6316 80.1506 30.302C79.8984 30.1469 79.6074 29.8173 79.4521 29.6429" fill="white"/>
            <path d="M81.5658 31.1745C81.4882 31.4847 81.236 32.4153 81.5658 33.0163C81.6628 33.1714 81.721 33.2683 81.7598 33.3458C81.7792 33.3071 81.7986 33.2489 81.818 33.2101C81.8568 33.1132 81.8956 33.0356 81.9539 32.9387C82.1479 32.5122 82.2837 32.0857 82.3225 31.7173V31.6398L82.1479 30.8837C81.9927 30.147 81.8956 29.7398 81.7986 29.3909C81.7986 29.8562 81.7598 30.3602 81.5852 31.1163V31.1745H81.5658Z" fill="white"/>
            <path d="M81.3698 27.3746H81.3892C81.3892 27.3746 81.4863 27.3746 81.5251 27.3746C81.8743 27.3746 81.8743 27.3358 81.8743 27.1613C81.8743 27.1225 81.8743 27.1032 81.8743 27.0644C81.8743 26.9481 81.7773 26.793 81.6221 26.6379C81.6221 26.7542 81.5639 26.8317 81.4086 26.8124C81.1952 26.7736 80.9624 26.3858 80.9624 26.3858C80.9624 26.3858 81.1564 26.3858 81.331 26.4052C81.331 26.4052 81.331 26.4052 81.3116 26.4052C81.0594 26.2695 80.7684 25.9981 80.5938 25.8236C80.7296 27.1613 81.1758 27.3358 81.3698 27.394" fill="white"/>
            <path d="M100.25 43.4271C100.541 43.4853 101.24 43.0588 101.725 43.369C101.841 43.9118 101.938 44.3189 103.16 44.6873C103.684 44.823 104.053 44.8618 104.635 45.1914C104.033 45.6179 103.762 45.7924 103.025 45.8893C102.287 45.9862 100.366 45.9281 101.88 47.4984C102.016 47.1301 101.919 46.7617 102.889 46.9944C103.49 47.0331 103.704 46.9556 104.402 46.0832C104.732 45.8117 105.139 44.9781 107.351 45.8117C108.03 46.0832 108.224 46.1801 108.962 45.9475C109.156 45.9087 109.292 45.8117 109.505 46.0444C109.039 45.3465 108.457 44.6291 107.487 44.8036C106.886 44.9005 106.478 44.8424 106.071 44.8424C106.536 44.3383 108.457 43.0975 109.292 44.4353C110.126 45.773 110.766 46.2189 110.436 47.3821C110.165 47.5178 110.068 47.576 109.524 47.2852C108.981 47.0137 108.108 46.5485 106.711 47.0137C106.245 47.2464 105.101 48.0219 106.478 48.7974C106.381 48.3902 106.168 47.7505 106.614 47.9637C107.08 48.1964 107.992 48.7974 109.777 48.0606C109.874 48.2933 110.087 48.6616 109.136 49.1075C108.768 49.379 107.895 49.6116 109.311 51.7248C109.272 51.1238 109.039 50.8912 109.447 50.8524C109.854 50.8136 110.184 50.8136 110.184 49.6116C110.417 49.2045 110.553 48.5065 112.997 48.9331C113.967 49.3984 114.879 49.6698 114.608 48.5647C114.647 48.3321 114.608 48.0219 115.52 48.1576C114.608 47.6923 114.045 47.3239 113.599 47.6923C113.133 48.0606 112.629 48.5647 111.62 47.8668C111.251 47.2658 110.98 46.3546 112.221 43.272C112.551 42.9424 111.853 42.167 114.433 43.4077C114.666 43.6404 114.938 43.8149 114.938 43.8149L120.118 43.1169C119.148 42.1088 118.934 41.7017 117.635 40.9068C116.626 40.2089 116.218 39.9374 115.714 39.3558C115.209 38.7548 114.802 38.1538 114.569 37.7855C115.539 37.7855 121.282 36.6804 117.46 36.5447C117.673 36.4478 118.12 36.409 118.546 36.1957C118.818 36.06 119.109 35.9049 119.4 35.7692C119.555 35.6917 119.652 35.459 119.808 35.3621C120.933 34.7029 121.418 34.1601 118.449 34.6641C118.585 34.4703 119.012 34.2376 119.323 33.7917C119.517 33.5009 119.749 33.1713 119.963 32.8418C120.157 32.551 120.176 32.1244 120.331 31.853C121.108 30.5541 121.34 29.701 119.148 31.601C119.245 31.1357 119.575 30.6704 119.788 29.9531C119.905 29.5847 120.04 29.0031 120.157 28.6154C120.37 27.9562 120.448 27.297 120.603 26.7348C121.088 24.99 120.991 24.292 118.779 27.6848C118.857 27.0256 119.245 25.94 119.42 24.6604C119.381 21.1319 119.963 17.5841 117.441 23.788C117.343 23.4972 117.343 23.187 117.246 22.8768C117.13 22.4503 117.072 21.9656 116.975 21.5391C116.917 21.3064 116.723 21.1319 116.684 20.9187C116.218 18.8637 115.927 18.0494 114.957 23.788C114.86 23.5941 114.841 23.2645 114.724 22.9543C114.608 22.6441 114.53 22.3533 114.394 22.0431C114.278 21.7136 114.026 21.4034 113.89 21.1513C113.444 20.182 112.978 19.8718 112.745 22.1788C111.872 20.6279 109.078 15.975 111.872 22.8186C112.512 23.7298 115.461 28.1889 110.262 33.656C109.854 33.7917 109.156 34.1213 109.35 32.6479C109.544 31.1745 110.126 30.399 110.785 29.9919C111.426 29.5847 112.493 28.848 111.29 28.9837C111.794 28.4797 113.172 27.0644 112.163 27.2389C112.668 26.4634 112.803 25.591 112.26 26.095C112.454 25.0869 112.221 23.6135 111.29 23.439C111.115 22.9737 110.883 20.9187 110.378 23.4002C110.106 22.6248 109.777 20.1432 109.369 22.7605C109 21.985 108.962 21.1126 108.632 22.7605C108.302 22.489 108.108 21.3646 108.127 21.0156C108.127 20.2789 107.293 23.2064 107.041 23.4778C106.808 23.7492 104.169 26.0563 104.227 27.2777C104.266 28.0144 104.383 28.4409 104.072 29.2939C103.742 30.147 103.742 30.5929 103.742 30.5929C103.742 31.5041 103.665 32.0663 103.742 32.7448C103.704 32.9581 103.587 33.3071 103.51 33.753C103.51 33.753 103.548 33.7142 103.568 33.6948C104.46 32.9775 104.693 32.1051 104.79 31.6979L104.965 30.8837C105.139 30.05 105.236 29.6429 105.353 29.2358C105.935 27.6848 106.381 27.5685 106.633 27.5103H106.672C107.526 27.2583 107.565 26.9869 107.623 26.6767C107.623 26.5991 107.642 26.541 107.662 26.4634L107.856 26.5022C107.856 26.5022 107.836 26.6379 107.817 26.696C107.759 27.045 107.72 27.394 106.75 27.6848H106.711C106.517 27.743 106.207 27.8205 105.76 28.8092C105.663 29.4878 105.663 30.0112 105.915 31.1163V31.1745C106.032 31.5428 106.284 32.4928 105.915 33.152C105.76 33.4234 105.663 33.5785 105.663 33.6172V33.9856L105.489 33.6754C105.411 33.5591 105.372 33.4428 105.333 33.3458C105.295 33.2489 105.256 33.1713 105.217 33.0938C105.081 32.7642 104.965 32.454 104.907 32.1632C104.751 32.6285 104.441 33.2877 103.742 33.8693C103.665 33.9468 103.607 33.9856 103.607 33.9856L103.529 33.9081C103.238 35.3815 103.122 37.8242 105.392 40.0344C106.11 41.1394 107.293 43.3884 104.868 44.3189C104.227 44.1832 103.995 44.1057 103.374 43.6404C102.753 43.1557 101.666 42.2639 100.328 43.4853M106.963 25.3389V25.6104C106.827 27.3164 106.265 27.5297 106.032 27.6072H105.974C105.974 27.6072 105.857 27.6266 105.818 27.6266C105.372 27.6266 105.295 27.5103 105.275 27.2389C105.275 27.2195 105.275 27.1807 105.275 27.142C105.236 26.7542 105.818 26.3665 105.935 26.2889C106.304 26.0757 106.789 25.5522 106.789 25.5328L106.963 25.3196V25.3389ZM107.177 30.4378C106.808 30.748 106.265 30.8643 106.265 30.8643C106.323 30.5153 106.42 29.798 106.284 29.449C106.284 29.1582 106.439 28.7511 107.06 28.344C107.681 27.9368 108.496 27.4909 108.593 26.4052C108.671 26.0757 108.845 25.6298 109.078 25.4165C109.311 25.2032 110.262 24.5053 110.611 25.6685C110.688 26.095 110.98 27.045 110.223 27.995C109.544 28.7705 108.186 29.1388 107.875 29.7786C107.739 29.9725 107.429 30.2827 107.177 30.4378Z" fill="white"/>
            <path d="M105.702 31.1745C105.78 31.4847 106.032 32.4153 105.702 33.0163C105.605 33.1714 105.547 33.2683 105.508 33.3458C105.489 33.3071 105.469 33.2489 105.45 33.2101C105.411 33.1132 105.372 33.0356 105.314 32.9387C105.12 32.5122 105.004 32.0857 104.945 31.7173V31.6398L105.12 30.8837C105.275 30.147 105.372 29.7398 105.469 29.3909C105.469 29.8562 105.508 30.3602 105.683 31.1163V31.1745H105.702Z" fill="white"/>
            <path d="M105.895 27.3746C105.895 27.3746 105.798 27.3746 105.759 27.3746C105.41 27.3746 105.41 27.3358 105.41 27.1613C105.41 27.1225 105.41 27.1032 105.41 27.0644C105.41 26.9481 105.507 26.793 105.662 26.6379C105.662 26.7542 105.721 26.8317 105.876 26.8124C106.089 26.7736 106.322 26.3858 106.322 26.3858C106.322 26.3858 106.128 26.3858 105.953 26.4052C105.953 26.4052 105.953 26.4052 105.973 26.4052C106.225 26.2695 106.516 25.9981 106.691 25.8236C106.555 27.1613 106.109 27.3358 105.915 27.394" fill="white"/>
            <path d="M6.49789 97.9825C6.49789 95.5785 6.36207 94.9388 4.88749 94.8224L3.83976 94.7255C3.58753 94.5316 3.60693 94.0276 3.87857 93.9113C5.64418 93.7562 7.85605 93.6398 10.9022 93.6398C12.9589 93.6398 14.9185 93.8143 16.3931 94.551C17.7901 95.2296 18.8766 96.5479 18.8766 98.6417C18.8766 101.007 17.499 102.209 15.5394 103.12C15.5394 103.45 15.811 103.547 16.1603 103.605C17.9259 103.934 20.5452 105.582 20.5452 109.072C20.5452 112.852 17.7319 115.412 11.8529 115.412C10.9022 115.412 9.31123 115.315 7.93366 115.315C6.55609 115.315 5.39195 115.373 4.1696 115.412C3.97558 115.315 3.89797 114.791 4.11139 114.597L4.69347 114.5C6.42028 114.21 6.49789 113.841 6.49789 110.41V98.0213V97.9825ZM9.17542 102.325C9.17542 103.236 9.19482 103.314 10.8828 103.236C14.22 103.101 16.0245 102.131 16.0245 99.0682C16.0245 96.0051 13.638 94.6674 11.1545 94.6674C10.4366 94.6674 9.95151 94.7449 9.66047 94.8806C9.33063 94.9582 9.21422 95.1326 9.21422 95.7143V102.345L9.17542 102.325ZM9.17542 109.906C9.17542 111.069 9.23362 112.736 9.8545 113.453C10.4754 114.19 11.4455 114.384 12.435 114.384C15.3454 114.384 17.5572 113.066 17.5572 109.809C17.5572 107.211 16.2573 104.225 11.0574 104.225C9.29183 104.225 9.15601 104.4 9.15601 105.078V109.906H9.17542Z" fill="white"/>
            <path d="M29.8197 100.755C29.8197 98.0407 29.7421 97.556 28.5585 97.4009L27.6466 97.2846C27.4526 97.1295 27.4526 96.6836 27.666 96.5673C29.2764 96.4316 31.236 96.354 34.0494 96.354C35.815 96.354 37.503 96.5091 38.8224 97.2071C40.1999 97.9244 41.1894 99.2233 41.1894 101.22C41.1894 103.934 39.0358 105.408 37.6194 105.989C37.4836 106.164 37.6194 106.455 37.7552 106.668C40.0447 110.352 41.5581 112.659 43.4983 114.268C43.9834 114.714 44.7013 115.004 45.4774 115.082C45.6132 115.14 45.652 115.373 45.4968 115.489C45.2445 115.567 44.7789 115.625 44.2356 115.625C41.8103 115.625 40.3551 114.908 38.3179 112.019C37.5612 110.972 36.3971 108.994 35.524 107.715C35.0971 107.095 34.6315 106.804 33.4867 106.804C32.2062 106.804 32.1285 106.842 32.1285 107.424V111.011C32.1285 114.035 32.1868 114.365 33.8554 114.597L34.4568 114.675C34.6315 114.811 34.5732 115.295 34.3986 115.373C33.1181 115.315 32.1479 115.295 31.0032 115.295C29.8003 115.295 28.7719 115.315 27.4332 115.373C27.2586 115.295 27.2003 114.849 27.375 114.675L28.0929 114.597C29.7421 114.403 29.8003 114.035 29.8003 111.011V100.774L29.8197 100.755ZM32.1673 104.826C32.1673 105.35 32.1674 105.66 32.245 105.757C32.342 105.854 32.7494 105.912 34.224 105.912C35.2523 105.912 36.3389 105.776 37.1732 105.156C37.9493 104.555 38.6089 103.547 38.6089 101.627C38.6089 99.3784 37.212 97.2265 34.03 97.2265C32.2644 97.2265 32.1673 97.3428 32.1673 98.1376V104.826Z" fill="white"/>
            <path d="M51.8409 100.774C51.8409 97.7305 51.7827 97.2459 50.0947 97.1102L49.3768 97.052C49.2022 96.9357 49.2604 96.4316 49.4156 96.3541C50.8514 96.3928 51.8215 96.4316 53.0245 96.4316C54.2274 96.4316 55.1393 96.3928 56.5751 96.3541C56.7497 96.4316 56.8079 96.9551 56.6333 97.052L55.9154 97.1102C54.2274 97.2459 54.1692 97.7305 54.1692 100.774V110.933C54.1692 113.977 54.2274 114.365 55.9154 114.559L56.6333 114.636C56.8079 114.733 56.7497 115.257 56.5751 115.334C55.1587 115.276 54.1692 115.257 53.0245 115.257C51.8797 115.257 50.8514 115.295 49.4156 115.334C49.241 115.257 49.2022 114.791 49.3768 114.636L50.0947 114.559C51.7827 114.365 51.8409 113.958 51.8409 110.933V100.774Z" fill="white"/>
            <path d="M79.9557 112.368C79.9557 113.512 80.1304 114.21 80.6348 114.403C80.7318 114.5 80.7318 114.675 80.596 114.752C80.2468 114.752 79.7423 114.849 79.199 115.004C77.6857 115.412 75.629 115.761 74.0768 115.761C70.6814 115.761 67.5576 114.83 65.3458 112.6C63.6383 110.875 62.707 108.626 62.707 106.086C62.707 103.547 63.5219 101.22 65.2876 99.3396C67.2084 97.3428 70.0411 96.005 74.3485 96.005C75.9783 96.005 77.4916 96.3152 77.9767 96.4122C78.52 96.5479 79.3931 96.7417 79.7423 96.6642C79.7423 97.6142 79.9169 99.107 80.1692 100.813C80.0722 101.046 79.5677 101.065 79.3931 100.891C78.5976 97.808 76.4439 96.8387 73.5336 96.8387C67.9845 96.8387 65.5592 100.794 65.5592 105.059C65.5592 110.545 68.3919 114.849 74.135 114.849C75.92 114.849 76.9678 114.481 77.2782 113.996C77.4334 113.783 77.5692 113.298 77.5692 112.348V111.224C77.5692 108.82 77.4722 108.645 75.7066 108.432L74.4455 108.296C74.2126 108.18 74.2514 107.657 74.4455 107.579C75.2798 107.637 76.8514 107.657 78.5394 107.657C79.6647 107.657 80.6348 107.657 81.5661 107.579C81.7796 107.695 81.799 108.103 81.6049 108.296L81.1393 108.355C79.9363 108.51 79.9169 109.305 79.9169 110.759V112.348L79.9557 112.368Z" fill="white"/>
            <path d="M93.7908 106.048C92.4326 106.048 92.3744 106.106 92.3744 106.959V110.972C92.3744 113.996 92.5102 114.384 94.1206 114.559L94.9355 114.636C95.1101 114.752 95.0519 115.256 94.8773 115.353C93.4027 115.295 92.3744 115.276 91.249 115.276C90.0267 115.276 89.0566 115.334 87.9312 115.353C87.7566 115.276 87.6984 114.811 87.873 114.636L88.3581 114.559C89.9491 114.268 90.0073 113.996 90.0073 110.972V100.716C90.0073 97.7111 89.8133 97.2264 88.3193 97.1101L87.582 97.052C87.4074 96.9356 87.4656 96.4316 87.6402 96.3346C89.0372 96.354 90.0073 96.4122 91.249 96.4122C92.3744 96.4122 93.4027 96.3734 94.5669 96.3346C94.7415 96.4122 94.7997 96.9356 94.6251 97.052L94.0818 97.1101C92.4326 97.2846 92.3744 97.7111 92.3744 100.716V103.993C92.3744 104.865 92.4326 104.904 93.7908 104.904H101.959C103.337 104.904 103.395 104.884 103.395 103.993V100.716C103.395 97.7111 103.337 97.2846 101.649 97.1101L101.105 97.052C100.931 96.9356 100.989 96.4316 101.164 96.3346C102.483 96.3928 103.453 96.4122 104.637 96.4122C105.743 96.4122 106.732 96.3734 108.013 96.3346C108.187 96.4122 108.246 96.9356 108.071 97.052L107.469 97.1101C105.82 97.2846 105.743 97.7111 105.743 100.716V110.972C105.743 113.996 105.801 114.365 107.469 114.559L108.149 114.636C108.323 114.752 108.265 115.256 108.09 115.353C106.713 115.295 105.743 115.276 104.637 115.276C103.453 115.276 102.425 115.315 101.164 115.353C100.989 115.276 100.931 114.811 101.105 114.636L101.649 114.559C103.395 114.268 103.395 113.996 103.395 110.972V106.959C103.395 106.106 103.337 106.048 101.959 106.048H93.7908Z" fill="white"/>
            <path d="M123.513 110.991C123.513 114.016 123.572 114.442 125.221 114.578L126.133 114.655C126.307 114.752 126.249 115.276 126.075 115.353C124.445 115.295 123.475 115.276 122.33 115.276C121.185 115.276 120.176 115.314 118.352 115.353C118.178 115.276 118.12 114.791 118.352 114.655L119.381 114.578C121.011 114.442 121.166 114.016 121.166 110.991V98.2344C121.166 97.3426 121.166 97.3232 120.312 97.3232H118.74C117.518 97.3232 115.927 97.3814 115.229 98.0406C114.55 98.6609 114.259 99.2813 113.948 99.9987C113.715 100.173 113.327 100.037 113.191 99.8048C113.657 98.5058 114.084 96.6835 114.278 95.5396C114.356 95.4815 114.744 95.4621 114.821 95.5396C114.996 96.4508 115.927 96.4314 117.247 96.4314H128.81C130.363 96.4314 130.615 96.3733 131.042 95.6366C131.177 95.5784 131.488 95.6172 131.546 95.7335C131.236 96.9161 131.042 99.2232 131.119 100.076C131.003 100.309 130.518 100.309 130.382 100.115C130.304 99.417 130.091 98.3507 129.664 98.0406C129.004 97.5559 127.918 97.3232 126.346 97.3232H124.309C123.455 97.3232 123.475 97.3426 123.475 98.2926V110.991H123.513Z" fill="white"/>
            <path d="M136.746 106.048C136.746 100.348 141.053 95.9856 146.932 95.9856C153.529 95.9856 156.847 100.755 156.847 105.757C156.847 111.553 152.462 115.741 146.932 115.741C140.588 115.741 136.746 111.205 136.746 106.048ZM153.995 106.649C153.995 101.957 151.919 96.858 146.447 96.858C143.479 96.858 139.618 98.8937 139.618 105.136C139.618 109.363 141.694 114.849 147.32 114.849C150.735 114.849 154.014 112.29 154.014 106.649" fill="white"/>
            <path d="M180.79 110.429C180.79 111.282 180.79 114.694 180.867 115.431C180.809 115.586 180.634 115.741 180.305 115.741C179.955 115.256 179.14 114.248 176.638 111.418L170.002 103.876C169.226 103.004 167.286 100.658 166.684 100.038H166.626C166.51 100.367 166.471 101.026 166.471 101.899V108.122C166.471 109.479 166.51 113.182 166.995 114.035C167.15 114.345 167.732 114.52 168.45 114.578L169.323 114.655C169.497 114.888 169.459 115.218 169.265 115.373C167.984 115.315 166.975 115.295 165.927 115.295C164.724 115.295 163.948 115.334 162.959 115.373C162.765 115.237 162.745 114.83 162.901 114.655L163.677 114.578C164.336 114.481 164.783 114.326 164.938 114.016C165.345 112.988 165.307 109.498 165.307 108.122V99.8824C165.307 99.0876 165.287 98.4865 164.686 97.8274C164.278 97.4203 163.599 97.2264 162.92 97.1488L162.435 97.0907C162.26 96.9356 162.26 96.4897 162.493 96.3734C163.696 96.4509 165.21 96.4509 165.714 96.4509C166.16 96.4509 166.665 96.4121 167.033 96.3734C167.596 97.8274 170.972 101.588 171.923 102.655L174.697 105.757C176.676 107.967 178.073 109.576 179.412 110.933H179.47C179.567 110.778 179.567 110.313 179.567 109.712V103.605C179.567 102.267 179.548 98.5641 179.005 97.7111C178.83 97.4396 178.364 97.2652 177.22 97.1488L176.735 97.0907C176.541 96.9356 176.56 96.4703 176.793 96.3734C178.093 96.4121 179.082 96.4509 180.169 96.4509C181.411 96.4509 182.128 96.4121 183.118 96.3734C183.331 96.5284 183.331 96.9162 183.176 97.0907L182.769 97.1488C181.857 97.2846 181.275 97.5172 181.158 97.7498C180.673 98.7774 180.731 102.306 180.731 103.624V110.448L180.79 110.429Z" fill="white"/>
            <path d="M21.5528 135.167C23.9392 133.306 26.9854 132.395 30.3808 132.395C32.1464 132.395 34.6299 132.744 36.1627 133.17C36.5508 133.267 36.7836 133.325 37.0746 133.306C37.1134 134.042 37.2687 136.117 37.5209 138.114C37.3657 138.327 36.8612 138.366 36.6478 138.172C36.1627 135.942 34.6881 133.403 29.954 133.403C24.9482 133.403 20.699 136.563 20.699 143.329C20.699 150.095 25.0452 153.972 30.4002 153.972C34.6105 153.972 36.4926 151.219 37.2298 149.3C37.4627 149.126 37.9477 149.203 38.0835 149.436C37.8507 151.142 36.997 153.294 36.512 153.914C36.1239 153.992 35.7359 154.128 35.3672 154.244C34.6493 154.515 32.3017 155 30.2062 155C27.257 155 24.4437 154.418 22.0766 152.809C19.4573 151.006 17.4395 148.04 17.4395 143.852C17.4395 140.227 19.0693 137.125 21.5528 135.186" fill="white"/>
            <path d="M44.1582 145.248C44.1582 139.529 48.4461 135.167 54.325 135.167C60.9412 135.167 64.259 139.936 64.259 144.958C64.259 150.735 59.8547 154.923 54.325 154.923C47.9805 154.923 44.1582 150.367 44.1582 145.229M61.4069 145.849C61.4069 141.119 59.3114 136.039 53.8594 136.039C50.8714 136.039 47.0298 138.075 47.0298 144.318C47.0298 148.544 49.0864 154.031 54.7131 154.031C58.1473 154.031 61.4069 151.472 61.4069 145.849Z" fill="white"/>
            <path d="M72.7955 139.897C72.7955 136.912 72.7372 136.446 70.9328 136.311L70.2343 136.233C70.0597 136.117 70.1179 135.613 70.2925 135.516C71.9029 135.574 72.8731 135.593 74.0178 135.593C75.1625 135.593 76.1133 135.574 77.5296 135.516C77.7042 135.593 77.7625 136.117 77.5878 136.233L76.9088 136.311C75.2207 136.446 75.1625 136.912 75.1625 139.897V149.843C75.1625 151.627 75.2596 152.383 75.764 152.925C76.0745 153.255 76.6177 153.585 78.8684 153.585C81.2937 153.585 81.8952 153.468 82.3608 153.216C82.9235 152.867 83.6802 151.859 84.2622 150.386C84.4369 150.25 84.9801 150.386 84.9801 150.58C84.9801 150.89 84.1846 153.798 83.7772 154.573C82.322 154.515 79.6057 154.476 76.6565 154.476H74.0372C72.8343 154.476 71.9224 154.515 70.312 154.573C70.1373 154.476 70.0791 154.031 70.2537 153.856L71.1075 153.759C72.7567 153.585 72.8149 153.197 72.8149 150.192V139.897H72.7955Z" fill="white"/>
            <path d="M92.1977 139.897C92.1977 136.912 92.1395 136.446 90.335 136.311L89.6172 136.233C89.4425 136.117 89.5007 135.613 89.6754 135.516C91.2664 135.574 92.2365 135.593 93.4006 135.593C94.5066 135.593 95.4573 135.574 96.893 135.516C97.0677 135.593 97.1259 136.117 96.9513 136.233L96.2722 136.311C94.5842 136.446 94.526 136.912 94.526 139.897V149.843C94.526 151.627 94.6036 152.383 95.1274 152.925C95.4379 153.255 95.9811 153.585 98.2318 153.585C100.657 153.585 101.259 153.468 101.724 153.216C102.287 152.867 103.044 151.859 103.606 150.386C103.781 150.25 104.324 150.386 104.324 150.58C104.324 150.89 103.529 153.798 103.121 154.573C101.647 154.515 98.9303 154.476 96.0005 154.476H93.4006C92.1783 154.476 91.2664 154.515 89.6754 154.573C89.5007 154.476 89.4425 154.031 89.6172 153.856L90.4709 153.759C92.1395 153.585 92.1783 153.197 92.1783 150.192V139.897H92.1977Z" fill="white"/>
            <path d="M111.58 139.897C111.58 136.931 111.521 136.505 109.833 136.311L109.368 136.233C109.193 136.117 109.251 135.613 109.426 135.516C110.648 135.574 111.638 135.593 112.802 135.593H118.176C120 135.593 121.688 135.593 122.037 135.516C122.212 136.02 122.367 138.075 122.484 139.316C122.367 139.471 121.921 139.548 121.766 139.374C121.339 138.017 121.087 137.028 119.593 136.66C119.011 136.505 118.079 136.485 116.818 136.485H114.762C113.908 136.485 113.908 136.543 113.908 137.629V143.329C113.908 144.143 113.985 144.143 114.859 144.143H116.508C117.711 144.143 118.584 144.085 118.952 143.969C119.282 143.872 119.496 143.678 119.632 142.96L119.864 141.797C120.02 141.623 120.505 141.623 120.621 141.836C120.621 142.515 120.505 143.62 120.505 144.725C120.505 145.752 120.621 146.838 120.621 147.458C120.505 147.672 120.02 147.672 119.864 147.497L119.612 146.373C119.515 145.869 119.302 145.442 118.739 145.287C118.332 145.171 117.653 145.151 116.547 145.151H114.897C114.044 145.151 113.947 145.171 113.947 145.927V149.94C113.947 151.471 114.024 152.441 114.49 152.925C114.82 153.274 115.421 153.585 117.944 153.585C120.136 153.585 120.951 153.468 121.591 153.158C122.115 152.867 122.891 151.879 123.628 150.386C123.842 150.25 124.23 150.328 124.346 150.599C124.152 151.607 123.434 153.798 123.046 154.573C120.466 154.515 117.944 154.476 115.382 154.476H112.802C111.58 154.476 110.609 154.515 108.921 154.573C108.747 154.476 108.689 154.031 108.863 153.856L109.814 153.759C111.444 153.623 111.58 153.197 111.58 150.192V139.897Z" fill="white"/>
            <path d="M146.739 151.569C146.739 152.712 146.894 153.391 147.418 153.585C147.515 153.662 147.515 153.837 147.399 153.934C147.069 153.934 146.545 154.031 146.002 154.186C144.469 154.593 142.412 154.942 140.88 154.942C137.465 154.942 134.36 153.992 132.149 151.762C130.441 150.056 129.529 147.807 129.529 145.287C129.529 142.767 130.325 140.402 132.09 138.521C134.011 136.524 136.825 135.186 141.171 135.186C142.801 135.186 144.314 135.497 144.78 135.613C145.342 135.729 146.235 135.923 146.565 135.865C146.565 136.815 146.759 138.288 146.991 140.014C146.894 140.227 146.39 140.266 146.235 140.091C145.439 137.009 143.286 136.039 140.356 136.039C134.807 136.039 132.381 139.975 132.381 144.26C132.381 149.746 135.214 154.05 140.957 154.05C142.723 154.05 143.809 153.682 144.12 153.197C144.256 153.003 144.411 152.48 144.411 151.569V150.425C144.411 148.021 144.314 147.846 142.548 147.652L141.268 147.497C141.054 147.381 141.093 146.877 141.268 146.78C142.121 146.838 143.674 146.877 145.381 146.877C146.506 146.877 147.457 146.838 148.408 146.78C148.602 146.896 148.641 147.323 148.408 147.497L147.962 147.555C146.759 147.71 146.739 148.505 146.739 149.959V151.569Z" fill="white"/>
            <path d="M156.788 139.897C156.788 136.931 156.73 136.505 155.042 136.311L154.596 136.233C154.402 136.117 154.479 135.613 154.654 135.516C155.896 135.574 156.846 135.593 158.03 135.593H163.404C165.248 135.593 166.916 135.593 167.265 135.516C167.44 136.02 167.595 138.075 167.712 139.316C167.595 139.471 167.149 139.548 166.994 139.374C166.567 138.017 166.315 137.028 164.821 136.66C164.219 136.505 163.307 136.485 162.046 136.485H159.989C159.136 136.485 159.136 136.543 159.136 137.629V143.329C159.136 144.143 159.213 144.143 160.067 144.143H161.736C162.939 144.143 163.831 144.085 164.161 143.969C164.51 143.872 164.704 143.678 164.84 142.96L165.073 141.797C165.209 141.623 165.694 141.623 165.81 141.836C165.81 142.515 165.694 143.62 165.694 144.725C165.694 145.752 165.81 146.838 165.81 147.458C165.694 147.672 165.209 147.672 165.073 147.497L164.821 146.373C164.704 145.869 164.51 145.442 163.928 145.287C163.521 145.171 162.842 145.151 161.736 145.151H160.067C159.213 145.151 159.136 145.171 159.136 145.927V149.94C159.136 151.471 159.213 152.441 159.679 152.925C160.028 153.274 160.63 153.585 163.133 153.585C165.345 153.585 166.159 153.468 166.8 153.158C167.304 152.867 168.08 151.879 168.837 150.386C169.05 150.25 169.419 150.328 169.555 150.599C169.361 151.607 168.643 153.798 168.274 154.573C165.694 154.515 163.152 154.476 160.591 154.476H158.03C156.788 154.476 155.837 154.515 154.13 154.573C153.975 154.476 153.917 154.031 154.072 153.856L155.022 153.759C156.652 153.623 156.788 153.197 156.788 150.192V139.897Z" fill="white"/>
            <path d="M181.642 125.163H5.75977V125.842H181.642V125.163Z" fill="#B48D00"/>
            <path d="M183.156 125.473L185.077 123.554L186.998 125.473L185.077 127.412L183.156 125.473ZM185.077 126.443L186.047 125.473L185.077 124.504L184.107 125.473L185.077 126.443Z" fill="#B48D00"/>
            <path d="M-0.00195312 125.493L1.91888 123.573L3.83971 125.493L1.91888 127.431L-0.00195312 125.493ZM1.91888 126.462L2.889 125.493L1.91888 124.523L0.948762 125.493L1.91888 126.462Z" fill="#B48D00"/>
            <path d="M98.3277 18.4177V18.1851H101.548V15.1607H98.3277V14.928H101.548V11.2639H98.3277V11.0312H101.548V7.65787H98.3277V7.42522H101.529V4.78857H87.7534V20.7248H87.5206V17.9137C86.4147 17.7198 85.658 18.3596 85.3281 18.7473V22.7023C85.3669 23.2063 85.755 23.6135 86.4341 23.5941C87.54 23.5359 100.52 23.5941 100.52 23.5941L100.462 22.2564L101.529 21.0931V18.4177H98.3083H98.3277Z" fill="#B48D00"/>
            <path d="M100.911 21.2095C92.8783 21.1513 88.3187 21.0932 87.6396 21.0738C86.1457 21.3452 85.6606 22.1982 85.6994 22.7023C85.7382 23.0513 85.9904 23.2645 86.3979 23.2645H86.4367C86.7665 23.2645 88.1441 23.2451 90.6082 23.2451C94.1394 23.2451 98.8348 23.2451 100.174 23.2645H100.309V22.1982L101.221 21.2095H100.911Z" fill="white"/>
            <path d="M98.8717 7.5997C98.8717 8.06499 98.5031 8.43335 98.0374 8.43335C97.5718 8.43335 97.2031 8.06499 97.2031 7.5997C97.2031 7.13441 97.5912 6.76605 98.0374 6.76605C98.4837 6.76605 98.8717 7.13441 98.8717 7.5997Z" fill="white"/>
            <path d="M98.8717 11.2057C98.8717 11.671 98.5031 12.0394 98.0374 12.0394C97.5718 12.0394 97.2031 11.671 97.2031 11.2057C97.2031 10.7404 97.5912 10.3721 98.0374 10.3721C98.4837 10.3721 98.8717 10.7404 98.8717 11.2057Z" fill="white"/>
            <path d="M98.8717 15.1025C98.8717 15.5678 98.5031 15.9362 98.0374 15.9362C97.5718 15.9362 97.2031 15.5484 97.2031 15.1025C97.2031 14.6566 97.5912 14.2689 98.0374 14.2689C98.4837 14.2689 98.8717 14.6372 98.8717 15.1025Z" fill="white"/>
            <path d="M98.8717 18.3596C98.8717 18.8249 98.5031 19.1933 98.0374 19.1933C97.5718 19.1933 97.2031 18.8249 97.2031 18.3596C97.2031 17.8944 97.5912 17.526 98.0374 17.526C98.4837 17.526 98.8717 17.8944 98.8717 18.3596Z" fill="white"/>
        </g>
    </g>
    <defs>
        <clipPath id="clip0_875_6022">
            <rect width="187" height="155" fill="white"/>
        </clipPath>
    </defs>
</svg>
